<?xml version="1.0" encoding="utf-8"?>
<!-- Generator: Adobe Illustrator 23.0.2, SVG Export Plug-In . SVG Version: 6.00 Build 0)  -->
<svg version="1.1" id="Capa_1" xmlns="http://www.w3.org/2000/svg" xmlns:xlink="http://www.w3.org/1999/xlink" x="0px" y="0px"
	 width="25px" height="19.6px" viewBox="0 0 25 19.6" style="enable-background:new 0 0 25 19.6;" xml:space="preserve">
<style type="text/css">
	.st0{fill:#CECDD2;}
</style>
<g>
	<path class="st0" d="M24.3,0.7c-0.4-0.4-1-0.7-1.6-0.7H2.2C1.6,0,1.1,0.2,0.7,0.7C0.2,1.1,0,1.6,0,2.2v15.2C0,18,0.2,18.5,0.7,19
		c0.4,0.4,1,0.7,1.6,0.7h20.5c0.6,0,1.1-0.2,1.6-0.7c0.4-0.4,0.7-1,0.7-1.6V2.2C25,1.6,24.8,1.1,24.3,0.7z M23.2,17.4
		c0,0.1,0,0.2-0.1,0.3c-0.1,0.1-0.2,0.1-0.3,0.1H2.2c-0.1,0-0.2,0-0.3-0.1c-0.1-0.1-0.1-0.2-0.1-0.3V6.7c0.3,0.3,0.6,0.6,1,0.9
		c2.5,1.9,4.5,3.5,5.9,4.7c0.5,0.4,0.9,0.7,1.2,0.9c0.3,0.2,0.7,0.4,1.2,0.7c0.5,0.2,1,0.3,1.4,0.3h0h0c0.4,0,0.9-0.1,1.4-0.3
		c0.5-0.2,0.9-0.5,1.2-0.7c0.3-0.2,0.7-0.5,1.2-0.9c1.5-1.2,3.5-2.8,5.9-4.7c0.3-0.3,0.7-0.6,1-0.9V17.4L23.2,17.4z M23.2,2.6v0.2
		c0,0.5-0.2,1.2-0.6,1.8c-0.4,0.7-0.9,1.2-1.4,1.6c-1.8,1.4-3.7,2.9-5.6,4.4c-0.1,0-0.2,0.2-0.5,0.4c-0.3,0.2-0.5,0.4-0.6,0.5
		c-0.2,0.1-0.4,0.3-0.6,0.4c-0.3,0.2-0.5,0.3-0.7,0.4c-0.2,0.1-0.4,0.1-0.6,0.1h0h0c-0.2,0-0.4,0-0.6-0.1c-0.2-0.1-0.4-0.2-0.7-0.4
		c-0.3-0.2-0.5-0.3-0.6-0.4c-0.2-0.1-0.4-0.3-0.6-0.5c-0.3-0.2-0.4-0.4-0.5-0.4c-1.9-1.5-3.8-3-5.6-4.4c-1.4-1.1-2.1-2.4-2.1-4
		c0-0.1,0-0.2,0.1-0.3C2,1.8,2.1,1.8,2.2,1.8h20.5c0.1,0,0.1,0.1,0.2,0c0.1,0,0.1,0,0.1,0.1c0,0.1,0.1,0.1,0.1,0.1c0,0,0,0.1,0,0.2
		c0,0.1,0,0.2,0,0.2L23.2,2.6L23.2,2.6z"/>
</g>
</svg>
