<?xml version="1.0" encoding="utf-8"?>
<!-- Generator: Adobe Illustrator 23.0.2, SVG Export Plug-In . SVG Version: 6.00 Build 0)  -->
<svg version="1.1" id="Capa_1" xmlns="http://www.w3.org/2000/svg" xmlns:xlink="http://www.w3.org/1999/xlink" x="0px" y="0px"
	 width="30px" height="30px" viewBox="0 0 30 30" style="enable-background:new 0 0 30 30;" xml:space="preserve">
<style type="text/css">
	.st0{fill:#CECDD2;}
</style>
<g>
	<path class="st0" d="M23.9,11.2V8.1c0-4.4-4-8.1-8.9-8.1S6.1,3.6,6.1,8.1v3.1c-1.9,0.3-3.3,2-3.3,4V26c0,2.2,1.8,4,4,4h16.4
		c2.2,0,4-1.8,4-4V15.1C27.2,13.1,25.8,11.5,23.9,11.2z M7.2,8.1c0-3.8,3.5-6.9,7.8-6.9s7.8,3.1,7.8,6.9v3.1H7.2V8.1z M26.1,26
		c0,1.6-1.3,2.9-2.9,2.9H6.8c-1.6,0-2.9-1.3-2.9-2.9V15.1c0-1.6,1.3-2.9,2.9-2.9h16.4c1.6,0,2.9,1.3,2.9,2.9V26z"/>
	<path class="st0" d="M15,15.6c-1.2,0-2.2,1-2.2,2.2v3.3c0,1.2,1,2.2,2.2,2.2s2.2-1,2.2-2.2v-3.3C17.2,16.6,16.2,15.6,15,15.6z
		 M16.1,21.1c0,0.6-0.5,1.1-1.1,1.1s-1.1-0.5-1.1-1.1v-3.3c0-0.6,0.5-1.1,1.1-1.1s1.1,0.5,1.1,1.1V21.1z"/>
</g>
</svg>
