<?xml version="1.0" encoding="utf-8"?>
<!-- Generator: Adobe Illustrator 23.0.2, SVG Export Plug-In . SVG Version: 6.00 Build 0)  -->
<svg version="1.1" id="Capa_1" xmlns="http://www.w3.org/2000/svg" xmlns:xlink="http://www.w3.org/1999/xlink" x="0px" y="0px"
	 width="30px" height="30px" viewBox="0 0 30 30" style="enable-background:new 0 0 30 30;" xml:space="preserve">
<style type="text/css">
	.st0{fill:#CECDD2;}
</style>
<g>
	<g>
		<path class="st0" d="M14.9,16.1C14.9,16.1,15,16.1,14.9,16.1c0.1,0,0.1,0,0.1,0c0,0,0,0,0.1,0c1.8,0,3.2-0.7,4.3-1.9
			c2.3-2.6,2-7.2,1.9-7.6c-0.2-3.2-1.7-4.8-3-5.5c-0.9-0.5-2-0.8-3.3-0.9h0c0,0,0,0,0,0h0c-0.7,0-2,0.1-3.3,0.8
			c-1.3,0.7-2.8,2.3-3,5.5c0,0.4-0.4,5,1.9,7.6C11.7,15.5,13.1,16.1,14.9,16.1z M10.3,6.8C10.3,6.8,10.3,6.8,10.3,6.8
			C10.5,2.4,13.6,2,15,2h0c0,0,0,0,0,0c1.6,0,4.4,0.7,4.6,4.8c0,0,0,0,0,0c0,0,0.4,4.2-1.5,6.4c-0.8,0.9-1.8,1.3-3.1,1.3
			c0,0,0,0,0,0l0,0c0,0,0,0,0,0c-1.3,0-2.4-0.4-3.1-1.3C9.9,11,10.3,6.9,10.3,6.8z"/>
		<path class="st0" d="M27.5,23.7C27.5,23.6,27.5,23.6,27.5,23.7c0-0.1,0-0.1,0-0.2c0-1.2-0.1-4-2.8-4.9c0,0,0,0-0.1,0
			c-2.7-0.7-5-2.3-5.1-2.3c-0.4-0.3-0.9-0.2-1.1,0.2c-0.3,0.4-0.2,0.9,0.2,1.1c0.1,0.1,2.5,1.8,5.6,2.5c1.4,0.5,1.6,2,1.6,3.4
			c0,0.1,0,0.1,0,0.2c0,0.5,0,1.4-0.1,1.9c-1,0.6-4.9,2.5-10.7,2.5c-5.9,0-9.7-1.9-10.7-2.5c-0.1-0.5-0.1-1.3-0.1-1.9
			c0,0,0-0.1,0-0.2c0-1.4,0.2-2.9,1.6-3.4c3-0.8,5.5-2.5,5.6-2.5c0.4-0.3,0.5-0.8,0.2-1.1c-0.3-0.4-0.8-0.5-1.1-0.2
			c0,0-2.3,1.6-5.1,2.3c0,0,0,0-0.1,0c-2.6,0.9-2.7,3.7-2.8,4.9c0,0.1,0,0.1,0,0.2c0,0,0,0,0,0c0,0.3,0,1.9,0.3,2.8
			c0.1,0.2,0.2,0.3,0.3,0.4c0.2,0.1,4.6,2.9,11.9,2.9s11.7-2.8,11.9-2.9c0.1-0.1,0.3-0.2,0.3-0.4C27.5,25.6,27.5,24,27.5,23.7z"/>
	</g>
</g>
</svg>
