<?xml version="1.0" encoding="utf-8"?>
<!-- Generator: Adobe Illustrator 23.0.2, SVG Export Plug-In . SVG Version: 6.00 Build 0)  -->
<svg version="1.1" id="Layer_1" xmlns="http://www.w3.org/2000/svg" xmlns:xlink="http://www.w3.org/1999/xlink" x="0px" y="0px"
	 width="1416.9px" height="451px" viewBox="0 0 1416.9 451" style="enable-background:new 0 0 1416.9 451;" xml:space="preserve">
<style type="text/css">
	.st0{fill:#FFFFFF;}
	.st1{font-family:'AdmisiDisplaySSi';}
	.st2{font-size:293.3877px;}
	.st3{letter-spacing:-39;}
	.st4{enable-background:new    ;}
</style>
<g>
	<text transform="matrix(1 0 0 1 289.5146 358.7758)" class="st0 st1 st2">  </text>
	<text transform="matrix(1 0 0 1 459.7222 358.7758)" class="st0 st1 st2 st3"> </text>
	<g class="st4">
		<path class="st0" d="M361.5,152.6c-0.3-0.2-0.7-0.6-1.3-1c-0.6-0.4-1.1-0.8-1.6-1.2l10.3-33.7c3.6,4,7.6,7.4,12,10.4
			c6.4,4.1,11.8,6.6,16.2,7.2c2,0.3,3.8,0.5,5.5,0.5c4.4,0,7.8-1.3,10.3-3.9c1.4-1.6,2.1-3.3,2.1-5.3c0-2.6-1.2-4.5-3.5-5.7
			c-0.6-0.2-1-0.4-1.4-0.6c-0.4-0.2-0.8-0.4-1.3-0.6c-0.5-0.2-1.2-0.5-2.2-0.8l-9.4-2.7c-5.6-1.6-10.3-3.4-14.3-5.4
			c-3.9-2-7.2-4.3-9.7-6.9c-2.6-2.6-4.7-5.7-6.5-9.2c-2.6-4.9-3.9-10.5-3.9-16.6c0-9,2.8-17.5,8.4-25.3c2.8-4,6.2-7.4,10.3-10.3
			c4.1-2.8,8.8-5,14.2-6.6c5.4-1.6,11.3-2.3,17.8-2.3c1.5,0,3.8,0.1,6.9,0.3c4.1,0.5,8.2,1.2,12.3,2.2c7.1,1.8,13.5,4.4,19.1,7.8
			l-12,31.3c-1-0.7-2.2-1.5-3.5-2.3c-8.4-5.2-15.7-7.8-22.1-7.8c-1.8,0-3.4,0.2-4.6,0.5c-1.8,0.6-3.2,1.5-4.2,2.7
			c-1,1.2-1.5,2.6-1.5,4c0,1,0.4,2.1,1.1,3.2c1,1.6,2.4,2.8,4.2,3.7c1.8,0.9,5.5,2,11.3,3.5c0.9,0.2,1.7,0.5,2.4,0.7
			c0.7,0.2,1.7,0.5,2.8,0.9c9.5,3.2,16.6,7.8,21.4,13.8c4.8,6,7.2,13.4,7.2,22.2c0,3.5-0.5,7.5-1.4,12c-2.2,10.5-7.7,19-16.4,25.6
			c-8.8,6.5-19.6,9.8-32.5,9.8c-2.8,0-5.6-0.2-8.4-0.5c-9.4-1-18.1-3.8-26.3-8.4C366.1,156.1,363.5,154.3,361.5,152.6z"/>
		<path class="st0" d="M543.1,163.7h-80.2V35.3h78.8v31h-39.4v16.3h34.8v30.9h-34.8v19.3h40.8V163.7z"/>
		<path class="st0" d="M592.6,163.7h-39.4V35.3h42.1l29.5,51.7c1.3,2,3.8,8.5,7.6,19.4l2.7,7.2l1.6,4.1c-0.1-0.5-0.3-1.2-0.5-2
			c-0.2-0.8-0.4-1.6-0.6-2.3c-1.6-7.8-2.7-13.7-3.2-17.8c-0.5-4.1-0.8-7.5-0.8-10.3V35.3h39.4v128.4H630l-31.7-54.6
			c-0.9-1.6-3.3-7.5-7.1-17.7c-1.1-2.8-2.6-7-4.4-12.7c0.7,3.2,1.7,7.6,2.8,13.3c2,10.7,3,16.9,3,18.7V163.7z"/>
		<path class="st0" d="M730.3,163.7h-48.2V35.3h46.6c9.8,0,18.7,1.4,26.7,4.3c8,2.8,14.9,6.9,20.7,12.1c5.8,5.2,10.2,11.5,13.3,18.8
			c3.1,7.3,4.7,15.4,4.7,24.2c0,9.7-2,20.1-6,31.1c-4.5,12.1-11.8,21.5-21.8,28.1C756.3,160.4,744.3,163.7,730.3,163.7z
			 M721.5,127.7h8.5c6.1,0,11.3-2.1,15.5-6.2c4.2-4.1,6.7-9.9,7.6-17.5c0.2-1.3,0.3-3.2,0.3-5.7c0-6-1.4-11.2-4.2-15.7
			c-2.8-4.5-6.6-7.7-11.3-9.6c-2.9-1.1-5.9-1.7-9.1-1.7h-7.4V127.7z"/>
	</g>
	<g class="st4">
		<path class="st0" d="M838.8,67.5c-6.3,0-11.5-1.7-15.6-5.2c-4.1-3.5-6.1-7.5-6.1-12.1c0-4.8,2-8.9,6-12.4c4-3.5,9.2-5.3,15.7-5.3
			c5.9,0,11.1,1.9,15.9,5.7c3.8,3.1,5.7,7,5.7,11.8c0,2.1-0.5,4.2-1.5,6.3c-1,2.1-2.4,3.9-4.2,5.3c-2.2,1.7-4.7,3.1-7.5,4.2
			C844.4,66.9,841.6,67.5,838.8,67.5z M857.7,163.7h-38.1V73.9h38.1V163.7z"/>
		<path class="st0" d="M874.7,104.7H862V73.9h12.7V52H913v21.9h19.2v30.9H913v19.6c0,9.4,4.2,14.1,12.7,14.1c0.9,0,2.2-0.1,4.1-0.3
			l1-0.2l0.9-0.2l4.2,22.4c-5.8,2.9-11.7,4.8-17.7,5.7c-2.8,0.5-5.9,0.7-9.2,0.7c-7.2,0-13.4-1.4-18.5-4.1
			c-5.2-2.7-9.1-6.6-11.8-11.6c-2.7-5-4.1-10.8-4.1-17.3V104.7z"/>
	</g>
	<g class="st4">
		<path class="st0" d="M955.7,111.8c-0.7-4-1-8.1-1-12.3c0-4,0.3-8,1-12.1c1.4-8.3,4-15.9,7.6-22.7c3.6-6.8,8.2-12.6,13.7-17.3
			c5.5-4.8,11.9-8.4,19.1-10.9c7.2-2.5,14.9-3.7,23.2-3.7c8.4,0,16.2,1.3,23.3,3.8c7.2,2.5,13.4,6.1,18.9,10.7
			c5.4,4.7,10,10.4,13.7,17.3c3.7,6.9,6.2,14.5,7.5,22.8c0.7,3.9,1,7.9,1,12.1c0,4.1-0.3,8.2-1,12.3c-1.4,8.3-3.9,15.8-7.4,22.5
			c-3.6,6.7-8.1,12.5-13.7,17.4c-5.5,4.9-11.9,8.6-18.9,11.2c-7.1,2.6-14.6,3.9-22.5,3.9c-4.5,0-9.3-0.5-14.3-1.5
			c-8.9-1.6-16.8-4.8-23.7-9.5c-7-4.7-12.7-10.8-17.2-18.2C960.4,130.2,957.3,121.6,955.7,111.8z M995.2,99.5c0,1,0.1,2.7,0.3,5.1
			c0.8,4.8,2.3,8.8,4.6,12.2c2.2,3.4,5,5.9,8.4,7.7c3.3,1.8,6.9,2.7,10.7,2.7c3.8,0,7.4-0.9,10.7-2.7c3.3-1.8,6-4.4,8.3-7.7
			c2.2-3.4,3.8-7.4,4.6-12.2c0.2-1.1,0.3-2.8,0.3-5.1c0-2.1-0.1-3.7-0.3-4.8c-1.2-6.9-4-12.4-8.3-16.4c-4.3-4-9.4-6-15.3-6
			c-5.9,0-11,2-15.3,5.9c-4.3,4-7.1,9.5-8.3,16.5C995.4,96.8,995.2,98.4,995.2,99.5z"/>
		<path class="st0" d="M1127,163.7l-45.8-128.4h43.1l16.5,57.8c0.5,1.8,1.1,8.1,2.1,18.9c0.2,1.8,0.3,3.8,0.5,5.8
			c0.1,2,0.3,4.6,0.4,7.7c0.1-1.1,0.2-2.1,0.3-2.8c0.1-0.7,0.1-1.5,0.2-2.4c0.5-8.3,1-14.6,1.5-18.8c0.5-4.2,0.9-7,1.3-8.4
			l16.3-57.8h43l-45.5,128.4H1127z"/>
		<path class="st0" d="M1286.4,163.7h-80.2V35.3h78.8v31h-39.4v16.3h34.8v30.9h-34.8v19.3h40.8V163.7z"/>
		<path class="st0" d="M1335.9,163.7h-39.4V35.3h54.9c10.3,0,18.9,1.5,25.8,4.4c6.9,2.9,12.1,7.2,15.7,12.9
			c3.5,5.7,5.3,12.5,5.4,20.5c0,9-1.9,16.5-5.8,22.7c-3.9,6.2-9.2,10.4-16.1,12.6l-1.7,0.5l-1.6,0.3l32.5,54.4h-45.3l-24.2-48.5
			V163.7z M1335.9,91.6h6.2c2.4,0,4.5-0.2,6.2-0.7c1.7-0.5,3.1-1.2,4.2-2.2c2.8-2.3,4.2-5.6,4.4-9.9c0-4-1.2-7.1-3.4-9.2
			c-2.3-2.1-5.7-3.2-10.2-3.2h-7.4V91.6z"/>
	</g>
	<g class="st4">
		<path class="st0" d="M361.2,326.3c-1.2-6.9-1.8-14-1.8-21.2c0-6.8,0.6-13.8,1.8-20.8c2.5-14.4,6.8-27.4,13.1-39.1
			c6.2-11.7,14.1-21.6,23.6-29.9c9.5-8.2,20.4-14.5,32.8-18.7c12.4-4.3,25.7-6.4,40-6.4c14.5,0,27.9,2.2,40.2,6.5
			s23.2,10.5,32.5,18.5c9.4,8,17.2,17.9,23.6,29.8c6.4,11.8,10.7,24.9,13,39.3c1.2,6.6,1.8,13.6,1.8,20.8c0,7.1-0.6,14.2-1.8,21.2
			c-2.4,14.3-6.6,27.2-12.8,38.7c-6.1,11.5-14,21.5-23.5,29.9c-9.6,8.4-20.4,14.9-32.6,19.3s-25.1,6.7-38.8,6.7
			c-7.7,0-15.9-0.8-24.7-2.5c-15.3-2.8-28.9-8.2-40.8-16.3c-12-8.1-21.9-18.6-29.6-31.3C369.4,358,364.1,343.2,361.2,326.3z
			 M429.4,305.1c0,1.7,0.2,4.6,0.6,8.8c1.4,8.2,4,15.2,7.9,21c3.9,5.8,8.7,10.2,14.4,13.3c5.7,3.1,11.9,4.6,18.4,4.6
			c6.6,0,12.8-1.5,18.4-4.6c5.6-3.1,10.4-7.5,14.3-13.3c3.9-5.8,6.5-12.8,7.9-21c0.4-1.9,0.6-4.8,0.6-8.8c0-3.7-0.2-6.4-0.6-8.3
			c-2.1-11.9-6.8-21.3-14.3-28.2c-7.4-6.9-16.2-10.4-26.3-10.4c-10.2,0-19,3.4-26.4,10.3c-7.4,6.8-12.2,16.3-14.3,28.4
			C429.6,300.5,429.4,303.3,429.4,305.1z"/>
		<path class="st0" d="M664.8,415.7h-67.9V194.6h72.5l50.8,89.1c2.2,3.5,6.5,14.6,13.1,33.4l4.6,12.5l2.7,7.1
			c-0.2-0.9-0.5-2.1-0.8-3.5c-0.3-1.4-0.7-2.7-1-3.9c-2.8-13.4-4.6-23.6-5.6-30.6c-0.9-7-1.4-12.9-1.4-17.7v-86.4h67.9v221.2h-70.4
			l-54.7-94c-1.6-2.8-5.6-12.9-12.2-30.5c-1.9-4.9-4.4-12.1-7.6-21.8c1.3,5.4,2.9,13.1,4.8,22.9c3.5,18.4,5.2,29.2,5.2,32.2V415.7z"
			/>
		<path class="st0" d="M950.1,415.7H819V194.6h67.9v159.1h63.3V415.7z"/>
		<path class="st0" d="M1026.5,415.7h-67.9V194.6h67.9V415.7z"/>
		<path class="st0" d="M1113.8,415.7H1046V194.6h72.5l50.8,89.1c2.2,3.5,6.5,14.6,13.1,33.4l4.6,12.5l2.7,7.1
			c-0.2-0.9-0.5-2.1-0.8-3.5c-0.3-1.4-0.7-2.7-1-3.9c-2.8-13.4-4.6-23.6-5.6-30.6c-0.9-7-1.4-12.9-1.4-17.7v-86.4h67.9v221.2h-70.4
			l-54.7-94c-1.6-2.8-5.6-12.9-12.2-30.5c-1.9-4.9-4.4-12.1-7.6-21.8c1.3,5.4,2.9,13.1,4.8,22.9c3.5,18.4,5.2,29.2,5.2,32.2V415.7z"
			/>
		<path class="st0" d="M1406.2,415.7H1268V194.6h135.8V248h-67.9v28.1h60v53.2h-60v33.3h70.3V415.7z"/>
	</g>
	<g>
		<path class="st0" d="M202.1,40.2c9.4,13.9,17.4,25.6,24.2,35.3l45.4-45.4h-78.4C196.5,32.9,199.4,36.3,202.1,40.2z"/>
		<g>
			<g>
				<path class="st0" d="M290.1,46.2c0-4.1-1.4-7.6-4-10.6l-51.5,51.5c0.9,1.2,1.8,2.4,2.6,3.5c2.9,3.8,5,7,6.6,9.4
					c1.6,2.4,3.3,5.6,4.8,9.6c1.7,4,2.5,7.7,2.5,11.2v0.1v0.1c0,3.4-0.8,7.2-2.5,11.2c-1.7,4-3.3,7.2-4.8,9.6
					c-1.6,2.4-3.8,5.5-6.6,9.4c-0.7,1.1-1.7,2.2-2.6,3.5l18.7,18.7h36.8V46.2z"/>
				<path class="st0" d="M226.3,166.6c-1.5,2.1-3.2,4.5-4.8,7h11.8L226.3,166.6z"/>
				<path class="st0" d="M217.1,157.4c2.8-4,5.2-7.4,7.2-10.2c0.2-0.3,0.6-0.8,1.1-1.5c0.6-0.7,1.2-1.7,2-2.8c1.6-2.2,2.9-4,3.8-5.5
					c1-1.5,2-3.3,3.3-5.3c1.2-2,2.1-4,2.7-5.9c0.7-1.9,0.9-3.5,0.9-5.1V121v-0.1c0-1.6-0.3-3.3-0.9-5.1c-0.7-1.9-1.5-3.8-2.7-5.9
					c-1.2-2-2.3-3.8-3.3-5.3c-1-1.5-2.2-3.3-3.8-5.5c-0.8-1.1-1.5-2-2-2.8c-0.5-0.7-0.8-1.2-1.1-1.5c-1.6-2.2-3.9-5.7-7.2-10.2
					c-5.9-8.5-14.4-20.8-25.9-37.2c-3.4-4.9-7.6-9.1-12.5-12.4c-4.8-3.3-10-4.9-15.3-4.9c-4.5,0-8.3,1.6-11.4,4.8
					c-3.2,3.3-4.7,7.1-4.7,11.4v127.2h58.7C210.1,167.3,213.8,162,217.1,157.4z"/>
			</g>
			<path class="st0" d="M55,291l-12.8-4.9l-19.7,51.4l12.8,4.9l-24.6,64.4l25.8,9.9l69-180.2l-25.8-9.9L55,291z"/>
			<g>
				<path class="st0" d="M98.5,173.6v202.7c0,22.3,18.1,40.6,40.6,40.6h162.1c22.3,0,40.6-18.2,40.6-40.6V173.6H98.5z M181.3,367.2
					c0,7.3-6,13.3-13.3,13.3l0,0c-7.3,0-13.3-6-13.3-13.3V223.1c0-7.3,6-13.3,13.3-13.3l0,0c7.3,0,13.3,6,13.3,13.3V367.2z
					 M233.7,367.2c0,7.3-6,13.3-13.3,13.3c-7.3,0-13.3-6-13.3-13.3V223.1c0-7.3,6-13.3,13.3-13.3c7.3,0,13.3,6,13.3,13.3V367.2z
					 M285.5,367.2c0,7.3-6,13.3-13.3,13.3l0,0c-7.3,0-13.3-6-13.3-13.3V223.1c0-7.3,6-13.3,13.3-13.3l0,0c7.3,0,13.3,6,13.3,13.3
					V367.2z"/>
			</g>
		</g>
	</g>
</g>
</svg>
