<?xml version="1.0" encoding="utf-8"?>
<!-- Generator: Adobe Illustrator 23.0.2, SVG Export Plug-In . SVG Version: 6.00 Build 0)  -->
<svg version="1.1" id="Layer_1" xmlns="http://www.w3.org/2000/svg" xmlns:xlink="http://www.w3.org/1999/xlink" x="0px" y="0px"
	 width="707px" height="698.7px" viewBox="0 0 707 698.7" style="enable-background:new 0 0 707 698.7;" xml:space="preserve">
<style type="text/css">
	.st0{opacity:0.56;fill:#D2EBFF;enable-background:new    ;}
	.st1{fill:#89CAF7;}
	.st2{fill:#D2EBFF;}
	.st3{fill:#073A93;}
	.st4{fill:#1858B5;}
	.st5{fill:#489BFF;}
	.st6{opacity:0.45;fill:#063272;enable-background:new    ;}
	.st7{fill:#E6E6E6;}
	.st8{fill:#F49290;}
	.st9{fill:#FFB5B1;}
	.st10{fill:#ACCFE5;}
	.st11{fill:#FFAA45;}
</style>
<g>
	<g>
		<path class="st0" d="M684.1,640.6c0-32.1-152.1-58.1-339.7-58.1c-187.6,0-339.7,26-339.7,58.1c0,32.1,152.1,58.1,339.7,58.1
			C532,698.7,684.1,672.7,684.1,640.6z"/>
		<path class="st1" d="M313.6,606.1C194.5,581,103.7,492.9,51.1,351.2C13.6,250.3,8.5,156.9,8.3,153l-2-40.4L324.8,0l318.5,112.6
			l-2,40.4c-0.2,3.9-5.3,97.3-42.8,198.2C545.9,492.9,455.1,581,336,606.1l-11.2,2.4L313.6,606.1z"/>
		<path class="st2" d="M577.1,156.2L324.8,67l0,0l0,0h0l0,0L72.5,156.2c0,0,17.1,337.9,252.3,387.4l0,0c0,0,0,0,0,0l0,0l0,0
			C560,494,577.1,156.2,577.1,156.2z"/>
		<g>
			<polygon class="st3" points="324.2,509.2 439.8,492.7 541.5,492.7 632.4,510.5 476.1,589.3 			"/>
			<path class="st3" d="M536.5,592.5c0,0-204.7-112.5-228.8-75.6c-34.9,53.3,18.4,80.1,208.5,130.9L536.5,592.5z"/>
			<g>
				<path class="st4" d="M592.9,648.7L592.9,648.7c5.1-12.2-0.7-26.3-13-31.3l-47.3-19.6l-18.3,44.3l47.3,19.6
					C573.8,666.7,587.9,660.9,592.9,648.7z"/>
				<path class="st5" d="M529.7,604.9l35.8,14.8c8.3,3.4,12.3,12.9,8.8,21.2c-3.4,8.3-13,12.2-21.3,8.8L517.3,635L529.7,604.9z"/>
				<path class="st6" d="M517.4,634.6l47.3,19.6c11,4.5,23.3,0.3,29.4-9.4c-0.3,1.3-0.6,2.6-1.2,3.9c-5.1,12.2-19.1,18-31.3,13
					l-47.3-19.6L517.4,634.6z"/>
				<path class="st7" d="M533.1,635.4l7.6-18.2c0.4-0.9,1.4-1.4,2.4-1l0,0c0.9,0.4,1.4,1.4,1,2.4l-7.6,18.2c-0.4,0.9-1.4,1.4-2.4,1
					l0,0C533.1,637.3,532.7,636.3,533.1,635.4z"/>
				<path class="st7" d="M544.2,640l7.6-18.2c0.4-0.9,1.4-1.4,2.4-1l0,0c0.9,0.4,1.4,1.4,1,2.4l-7.6,18.2c-0.4,0.9-1.4,1.4-2.4,1
					l0,0C544.2,642,543.8,640.9,544.2,640z"/>
				<path class="st7" d="M556.4,645l7.6-18.2c0.4-0.9,1.4-1.4,2.4-1l0,0c0.9,0.4,1.4,1.4,1,2.4l-7.6,18.2c-0.4,0.9-1.4,1.4-2.4,1
					l0,0C556.5,647,556,646,556.4,645z"/>
			</g>
			<path class="st5" d="M610.7,440.4c-3.1-10.8-18.8-29.1-32.7-66.7c-14.5-39-76.2-43.2-76.2-43.2l-23.9,12.8l-24-12.8
				c0,0-61.7,4.2-76.2,43.2c-13.9,37.5-29.6,55.9-32.7,66.7c-3.1,10.8,13.8,80.8,62.6,90.7h68.4h3.7H548
				C596.8,521.2,613.8,451.2,610.7,440.4z"/>
			<g>
				<g id="XMLID_30_">
					<path class="st8" d="M504.4,330.8V350c0,0-4.4,21.4-25.3,25c-21.8-4.9-25.1-25-25.1-25v-19.2H504.4z"/>
				</g>
				<g>
					<path id="XMLID_29_" class="st3" d="M431.3,293.1c0,0-7.1-44.8,9.9-50.3c4.6-1.5,1.2-16.3,27.2-16.5c35.5-0.2,63.4-5,58.7,67.4
						L431.3,293.1z"/>
					<circle class="st9" cx="441.5" cy="298" r="12.3"/>
					<circle class="st9" cx="516.1" cy="298" r="12.3"/>
					<path class="st9" d="M520,277.3L520,277.3L520,277.3C519.9,277.3,519.9,277.3,520,277.3c-0.6-0.2-10.4-3.4-12.2-16.3l-5.4,1.5
						c-14.8,4.1-30.6,4-45.4-0.4l-4.3-1.1c-1.9,12.8-12.1,16.1-12.7,16.3c0,0-0.1,0-0.1,0l-0.3,19.9c0,11.6,4.9,25.6,12.7,36.4
						c6.3,8.8,16.6,13.9,27.5,13.9c10.8,0,21.1-5.1,27.5-13.9c7.8-10.8,12.7-24.8,12.7-36.4L520,277.3L520,277.3z"/>
				</g>
			</g>
			<path class="st2" d="M543.6,441.6H414.5c-7.2,0-13,5.8-13,13V532c0,7.2,5.8,13,13,13h129.1c7.2,0,13-5.8,13-13v-77.4
				C556.6,447.4,550.8,441.6,543.6,441.6z"/>
			<path class="st1" d="M494.7,492.3c0-8.9-7.2-16.1-16.1-16.1c-8.9,0-16.1,7.2-16.1,16.1c0,8.9,7.2,16.1,16.1,16.1
				C487.5,508.4,494.7,501.1,494.7,492.3z"/>
			<path class="st3" d="M415.1,592.5c0,0,204.7-112.5,228.8-75.6c34.9,53.3-18.4,80.1-208.5,130.9L415.1,592.5z"/>
			<g>
				<path class="st4" d="M358.6,648.7L358.6,648.7c-5.1-12.2,0.7-26.3,13-31.3l47.3-19.6l18.4,44.3L390,661.7
					C377.7,666.7,363.7,660.9,358.6,648.7z"/>
				<path class="st5" d="M434.3,635l-35.8,14.8c-8.3,3.4-17.8-0.5-21.3-8.8c-3.4-8.3,0.5-17.8,8.8-21.2l35.8-14.8L434.3,635z"/>
				<path class="st6" d="M434.1,634.6l-47.3,19.6c-11,4.5-23.3,0.3-29.4-9.4c0.3,1.3,0.6,2.6,1.2,3.9c5.1,12.2,19.1,18,31.3,13
					l47.3-19.6L434.1,634.6z"/>
				<path class="st7" d="M418.5,635.4l-7.6-18.2c-0.4-0.9-1.4-1.4-2.4-1l0,0c-0.9,0.4-1.4,1.4-1,2.4l7.6,18.2c0.4,0.9,1.4,1.4,2.4,1
					l0,0C418.4,637.3,418.9,636.3,418.5,635.4z"/>
				<path class="st7" d="M407.4,640l-7.6-18.2c-0.4-0.9-1.4-1.4-2.4-1l0,0c-0.9,0.4-1.4,1.4-1,2.4l7.6,18.2c0.4,0.9,1.4,1.4,2.4,1
					l0,0C407.3,642,407.8,640.9,407.4,640z"/>
				<path class="st7" d="M395.1,645l-7.6-18.2c-0.4-0.9-1.4-1.4-2.4-1l0,0c-0.9,0.4-1.4,1.4-1,2.4l7.6,18.2c0.4,0.9,1.4,1.4,2.4,1
					l0,0C395.1,647,395.5,646,395.1,645z"/>
			</g>
		</g>
		<g>
			<g>
				<g>
					<path class="st3" d="M111.9,567.2c0,0-40.8-65.1-28.2-74.5c12.6-9.4,25,28.9,31.5,22.7c6.5-6.1-22.5-60.9-8.8-72.7
						c13.7-11.8,12.6,28.2,24.3,35.6c11.6,7.4-6.3-54.5,7.6-64.2c13.9-9.7,20.6,21.1,20.6,21.1S174.3,374,195,386
						c20.7,12-31.8,73.7-19.4,71.6c12.3-2.1,25-23,35.7-8.9c10.7,14-59.3,49.8-48.1,48.9c11.2-0.9,31.1-14.8,34.6-2.4
						c3.5,12.4-56.8,34.8-50.6,39.1c6.2,4.3,37.7-20,42.7-2.1C194.8,550,124.4,578.5,111.9,567.2z"/>
					<path class="st2" d="M107,592.6c7.6-12.7,13.9-26.5,18.9-40.9c2.6-7.6,4.8-15.5,6.9-23.1c1-3.5,1.9-6.9,2.9-10.4
						c11.2-38.5,27.1-75.7,47.2-110.4l0.8,0.5c-20,34.7-35.9,71.8-47.1,110.2c-1,3.4-2,6.9-2.9,10.4c-2.1,7.6-4.3,15.5-6.9,23.1
						c-4.9,14.5-11.3,28.4-18.9,41.1L107,592.6z"/>
					<path class="st2" d="M151.5,472.1c-0.1-0.1-0.1-0.1-0.2-0.2c-4.6-14-7.7-28.5-9.2-43.2c0-0.3,0.2-0.5,0.4-0.5
						c0.3,0,0.5,0.2,0.5,0.4c1.5,14.6,4.6,29.1,9.2,43c0.1,0.2-0.1,0.5-0.3,0.6C151.7,472.2,151.6,472.2,151.5,472.1z"/>
					<path class="st2" d="M145.7,489c0,0-0.1-0.1-0.1-0.1c-0.2-0.2-0.1-0.5,0.1-0.6c12.6-9.2,25.7-18.8,39.7-26.4
						c2.6-1.4,5.3-2.8,8.3-3.6c0.2-0.1,0.5,0.1,0.6,0.3c0.1,0.2-0.1,0.5-0.3,0.6c-2.9,0.7-5.6,2.1-8.1,3.5
						c-14,7.6-27,17.1-39.6,26.4C146.1,489.1,145.9,489.1,145.7,489z"/>
					<path class="st2" d="M136.6,516.8c0,0-0.1-0.1-0.1-0.1c-5.3-8-12.1-18.7-16.9-30.3c-3.3-7.9-5.8-16.3-8.2-24.4
						c-0.1-0.2,0.1-0.5,0.3-0.6c0.2-0.1,0.5,0.1,0.6,0.3c2.4,8.1,4.8,16.4,8.1,24.3c4.8,11.5,11.5,22.2,16.9,30.2
						c0.1,0.2,0.1,0.5-0.1,0.6C137,516.9,136.8,516.9,136.6,516.8z"/>
					<path class="st2" d="M136.5,517.2c-0.2-0.1-0.2-0.3-0.2-0.5c0.1-0.2,0.3-0.4,0.6-0.3c1.3,0.5,2.7,0.3,4.1,0
						c3.7-0.7,7.4-2.1,10.9-3.4c0.7-0.2,1.3-0.5,2-0.7c10.4-3.8,21.3-6.7,31.8-9.5c0.2-0.1,0.5,0.1,0.6,0.3c0.1,0.2-0.1,0.5-0.3,0.6
						c-10.5,2.8-21.4,5.7-31.7,9.5c-0.7,0.2-1.3,0.5-2,0.7c-3.6,1.3-7.2,2.7-11,3.4c-1.4,0.3-3.1,0.5-4.6-0.1
						C136.5,517.2,136.5,517.2,136.5,517.2z"/>
					<path class="st2" d="M125.3,553.8c-12.2-8.4-26.2-31-34.4-47.8c-0.1-0.2,0-0.5,0.2-0.6c0.2-0.1,0.5,0,0.6,0.2
						c8.2,16.7,22.1,39.1,34.1,47.4c0.2,0.1,0.3,0.4,0.1,0.6C125.8,553.9,125.5,553.9,125.3,553.8z"/>
					<path class="st2" d="M126.1,554.1c-0.1-0.1-0.2-0.2-0.3-0.2c-0.2-0.2-0.2-0.5-0.1-0.6c0.2-0.2,0.5-0.2,0.6-0.1
						c1.7,1.4,4.3,1,6.8,0.3l44.5-12.2c0.2-0.1,0.5,0.1,0.6,0.3c0.1,0.2-0.1,0.5-0.3,0.6l-44.5,12.2
						C130.8,555.1,128.1,555.5,126.1,554.1z"/>
				</g>
				<g>
					<path class="st5" d="M106.5,566c0,0-70.6-30.6-65.5-45.5c5.1-14.9,37,9.7,38.9,0.9c1.8-8.7-53.1-37.5-48.5-55
						c4.6-17.5,26.4,16.1,40.2,15.6c13.8-0.5-36.1-41.4-30.1-57.3c6-15.9,29,5.7,29,5.7s-22.1-59.3,1.8-61.2
						c23.9-1.8,15.6,78.9,24.6,70.1c9-8.7,7.6-33.1,24.4-27.6c16.8,5.5-20.7,74.7-12,67.6c8.7-7.1,17.2-29.9,27.1-21.6
						c9.9,8.3-27.1,60.9-19.5,60.9c7.6,0,19.8-37.9,34-26C165.2,504.8,123.3,568.3,106.5,566z"/>
					<path class="st2" d="M116.9,589.7c-0.9-14.8-3.5-29.7-7.7-44.5c-2.2-7.7-4.8-15.5-7.4-23c-1.2-3.4-2.3-6.8-3.5-10.2
						c-12.6-38.2-20.6-77.8-23.7-117.9l0.9-0.1c3.2,40,11.1,79.6,23.7,117.7c1.1,3.4,2.3,6.8,3.5,10.2c2.6,7.5,5.2,15.2,7.4,23
						c4.2,14.8,6.8,29.8,7.7,44.7L116.9,589.7z"/>
					<path class="st2" d="M85.2,465.1c-0.1,0-0.2,0-0.3-0.1c-11.7-9-22.5-19.2-32.1-30.4c-0.2-0.2-0.1-0.5,0.1-0.6
						c0.2-0.2,0.5-0.1,0.6,0.1c9.5,11.2,20.3,21.4,32,30.3c0.2,0.2,0.2,0.4,0.1,0.6C85.5,465,85.4,465.1,85.2,465.1z"/>
					<path class="st2" d="M90.1,482.3c-0.1,0-0.1,0-0.2,0c-0.2-0.1-0.4-0.3-0.3-0.6c5.2-14.8,10.6-30.1,17.8-44.3
						c1.3-2.6,2.8-5.4,4.9-7.7c0.2-0.2,0.5-0.2,0.6,0c0.2,0.2,0.2,0.5,0,0.6c-2,2.2-3.4,4.9-4.7,7.5c-7.2,14.2-12.6,29.5-17.7,44.2
						C90.4,482.2,90.3,482.3,90.1,482.3z"/>
					<path class="st2" d="M98.3,510.4c-0.1,0-0.1,0-0.2,0c-8.9-3.6-20.6-8.6-31.2-15.4c-7.2-4.7-14-10.2-20.6-15.5
						c-0.2-0.2-0.2-0.4-0.1-0.6c0.2-0.2,0.4-0.2,0.6-0.1c6.5,5.3,13.3,10.8,20.5,15.4c10.5,6.8,22.1,11.8,31,15.3
						c0.2,0.1,0.3,0.4,0.3,0.6C98.6,510.3,98.5,510.4,98.3,510.4z"/>
					<path class="st2" d="M98.4,510.8c-0.2,0-0.4-0.1-0.4-0.3c-0.1-0.2,0.1-0.5,0.3-0.6c1.3-0.3,2.4-1.3,3.4-2.3
						c2.7-2.7,4.9-5.9,7.1-9c0.4-0.6,0.8-1.2,1.2-1.7c6.4-9,13.8-17.6,20.9-25.9c0.2-0.2,0.5-0.2,0.6-0.1c0.2,0.2,0.2,0.5,0,0.6
						c-7.1,8.3-14.4,16.8-20.8,25.8c-0.4,0.6-0.8,1.1-1.2,1.7c-2.2,3.1-4.4,6.3-7.2,9.1c-1,1-2.3,2.2-3.8,2.6
						C98.5,510.8,98.5,510.8,98.4,510.8z"/>
					<path class="st2" d="M110,547.3c-14.8,0-39.2-10.7-55.5-19.9c-0.2-0.1-0.3-0.4-0.2-0.6c0.1-0.2,0.4-0.3,0.6-0.2
						c16.2,9.1,40.4,19.8,55,19.8c0.3,0,0.5,0.2,0.5,0.5S110.2,547.3,110,547.3z"/>
					<path class="st2" d="M110.8,547.2c-0.1,0-0.3,0-0.4,0c-0.3,0-0.4-0.2-0.4-0.5c0-0.2,0.3-0.4,0.5-0.4c2.2,0.2,4.1-1.7,5.8-3.7
						l29.8-35.3c0.2-0.2,0.5-0.2,0.6-0.1c0.2,0.2,0.2,0.5,0.1,0.6L117,543.2C115.2,545.3,113.3,547.2,110.8,547.2z"/>
				</g>
			</g>
			<g>
				<path class="st2" d="M75.3,576.9l11.3,69.8c1.6,9.9,10.1,17.2,20.2,17.2h34.3c10,0,18.6-7.3,20.2-17.2l11.3-69.8H75.3z"/>
				<path class="st10" d="M172.5,576.9h-19.1H75.3l1.6,9.7h74.9l-9.7,60.1c-1.6,9.9-10.1,17.2-20.2,17.2h19.1
					c10,0,18.6-7.3,20.2-17.2l9.7-60.1l0,0L172.5,576.9z"/>
				<path class="st2" d="M173.6,556.8H74.2c-5.6,0-10.2,4.6-10.2,10.2l0,0c0,5.6,4.6,10.2,10.2,10.2h99.4c5.6,0,10.2-4.6,10.2-10.2
					l0,0C183.7,561.4,179.2,556.8,173.6,556.8z"/>
			</g>
		</g>
		<g>
			<path class="st11" d="M688.6,110.1h-266c-7.5,0-13.7,6.2-13.7,13.7v63.2c0,7.5,6.2,13.7,13.7,13.7h266c7.5,0,13.7-6.2,13.7-13.7
				v-63.2C702.3,116.3,696.1,110.1,688.6,110.1z"/>
			<g>
				<path class="st3" d="M472.4,187.1h-36.6c-3.1,0-5.7-2.6-5.7-5.7v-25c0-3.1,2.5-5.7,5.7-5.7h36.6c3.1,0,5.7,2.6,5.7,5.7v25
					C478,184.6,475.5,187.1,472.4,187.1z"/>
				<path class="st3" d="M470.7,146.6h-4.5v-7.2c0-6.7-5.4-12.1-12.1-12.1c-6.7,0-12.1,5.4-12.1,12.1v7.2h-4.5v-7.2
					c0-9.1,7.4-16.6,16.6-16.6c9.1,0,16.6,7.4,16.6,16.6L470.7,146.6L470.7,146.6z"/>
				<path class="st11" d="M459.1,164.1c0-2.8-2.3-5.1-5.1-5.1c-2.8,0-5.1,2.3-5.1,5.1c0,1.9,1,3.5,2.6,4.4l-1.7,10h8.5l-1.7-10
					C458.1,167.6,459.1,166,459.1,164.1z"/>
			</g>
			<g>
				<circle class="st3" cx="531.2" cy="158.2" r="8.3"/>
				<path class="st3" d="M571.1,158.2c0,4.6-3.7,8.3-8.3,8.3c-4.6,0-8.3-3.7-8.3-8.3s3.7-8.3,8.3-8.3
					C567.4,149.9,571.1,153.6,571.1,158.2z"/>
				<circle class="st3" cx="594.5" cy="158.2" r="8.3"/>
				<circle class="st3" cx="626.2" cy="158.2" r="8.3"/>
				<circle class="st3" cx="657.8" cy="158.2" r="8.3"/>
			</g>
		</g>
	</g>
	<g>
		<path class="st3" d="M145.4,191.8c-2.2-0.8-3.7-1.8-4.7-3c-1-1.2-1.5-2.6-1.5-4.4c0-1.5,0.4-2.8,1.1-3.9c0.7-1.1,1.8-2,3.2-2.7
			c1.4-0.7,3-1,4.9-1c2.4,0,4.8,0.5,7.3,1.4v3.2c-2.7-0.8-5-1.2-7-1.2c-1.7,0-3,0.3-4,1c-0.9,0.7-1.4,1.7-1.4,3
			c0,1.1,0.3,1.9,0.9,2.5c0.6,0.6,1.8,1.2,3.5,1.9l3.6,1.3c2.1,0.8,3.7,1.7,4.6,2.9c0.9,1.1,1.4,2.6,1.4,4.3c0,2.5-0.9,4.5-2.7,6
			c-1.8,1.5-4.2,2.3-7.3,2.3c-3,0-5.7-0.5-7.9-1.6v-3.2c2.8,0.9,5.4,1.4,7.8,1.4c1.9,0,3.3-0.4,4.4-1.2c1.1-0.8,1.6-1.9,1.6-3.3
			c0-1-0.3-1.8-0.9-2.4c-0.6-0.6-1.7-1.3-3.1-1.8L145.4,191.8z"/>
		<path class="st3" d="M165.1,195.6c0.1,2.3,0.6,3.9,1.7,5c1.1,1.1,2.7,1.6,5,1.6c2.1,0,4.2-0.4,6.4-1.2v2.8c-1.9,1-4.2,1.5-6.9,1.5
			c-3.2,0-5.7-0.9-7.3-2.7c-1.7-1.8-2.5-4.4-2.5-7.9c0-3.3,0.8-5.9,2.5-7.8c1.7-1.9,4-2.8,6.9-2.8c2.5,0,4.4,0.7,5.8,2.1
			c1.3,1.4,2,3.4,2,6c0,1.2-0.1,2.4-0.3,3.4H165.1z M170.6,187.1c-1.7,0-2.9,0.5-3.9,1.5c-0.9,1-1.4,2.5-1.6,4.4h9.8
			c0-0.2,0-0.6,0-1c0-1.6-0.4-2.8-1.1-3.6C173.1,187.5,172,187.1,170.6,187.1z"/>
		<path class="st3" d="M196.8,204.8v-13.4c0-1.4-0.3-2.4-0.8-3.1c-0.6-0.7-1.5-1-2.7-1c-2.1,0-4.1,0.7-6.1,2v15.4h-3.9v-20h3.3
			l0.4,2.2c2.5-1.9,5.1-2.8,7.9-2.8c1.9,0,3.4,0.5,4.4,1.5c1,1,1.5,2.5,1.5,4.4v14.7H196.8z"/>
		<path class="st3" d="M220.7,204.8l-0.5-2.1c-0.9,0.8-1.9,1.4-3,1.8c-1.1,0.4-2.2,0.7-3.4,0.7c-1.7,0-3.1-0.4-4.4-1.2
			c-1.3-0.8-2.2-2-3-3.6c-0.7-1.6-1.1-3.4-1.1-5.5c0-2.1,0.3-4,1-5.6c0.7-1.6,1.7-2.9,2.9-3.8c1.3-0.9,2.8-1.3,4.6-1.3
			c2.2,0,4.2,0.7,6,2.2v-10.8h3.9v29.2H220.7z M215,202c1.6,0,3.3-0.6,5-1.8v-11.2c-0.8-0.6-1.6-1-2.5-1.3c-0.8-0.3-1.7-0.4-2.7-0.4
			c-3.6,0-5.4,2.5-5.4,7.4C209.4,199.6,211.3,202,215,202z"/>
		<path class="st3" d="M249.5,199.4c0-0.6-0.2-1.1-0.6-1.5c-0.4-0.4-1.2-0.8-2.2-1.2l-3.4-1.3c-2.9-1.1-4.4-2.9-4.4-5.5
			c0-1.7,0.7-3.1,2-4.1c1.3-1.1,3.1-1.6,5.2-1.6c2.1,0,4,0.4,5.9,1.3v2.8c-2.1-0.7-3.9-1-5.7-1c-2.5,0-3.8,0.9-3.8,2.6
			c0,0.7,0.2,1.2,0.6,1.6c0.4,0.4,1.2,0.8,2.5,1.3l3.1,1.2c1.6,0.6,2.7,1.3,3.4,2.2c0.7,0.8,1,1.9,1,3.2c0,1.9-0.7,3.4-2.1,4.5
			c-1.4,1.1-3.3,1.7-5.6,1.7c-2.6,0-4.9-0.5-6.8-1.5v-2.8c2.5,0.8,4.8,1.2,6.9,1.2c1.3,0,2.3-0.2,2.9-0.7
			C249.1,201.1,249.5,200.3,249.5,199.4z"/>
		<path class="st3" d="M259.9,195.6c0.1,2.3,0.6,3.9,1.7,5c1.1,1.1,2.7,1.6,5,1.6c2.1,0,4.2-0.4,6.4-1.2v2.8c-1.9,1-4.2,1.5-6.9,1.5
			c-3.2,0-5.7-0.9-7.3-2.7c-1.7-1.8-2.5-4.4-2.5-7.9c0-3.3,0.8-5.9,2.5-7.8c1.7-1.9,4-2.8,6.9-2.8c2.5,0,4.4,0.7,5.8,2.1
			c1.3,1.4,2,3.4,2,6c0,1.2-0.1,2.4-0.3,3.4H259.9z M265.3,187.1c-1.7,0-2.9,0.5-3.9,1.5c-0.9,1-1.4,2.5-1.6,4.4h9.8
			c0-0.2,0-0.6,0-1c0-1.6-0.4-2.8-1.1-3.6C267.9,187.5,266.8,187.1,265.3,187.1z"/>
		<path class="st3" d="M285.2,204.5c-0.9,0.3-1.8,0.5-2.8,0.5c-1.4,0-2.5-0.4-3.2-1.2c-0.7-0.8-1.1-2-1.1-3.5v-24.8h3.9v24.5
			c0,0.6,0.1,1,0.4,1.3c0.2,0.3,0.7,0.4,1.2,0.4c0.5,0,1.1,0,1.6-0.1V204.5z"/>
		<path class="st3" d="M290.8,204.8v-16.9h-3.7v-2.5l3.7-0.5v-3.2c0-4.4,2.1-6.6,6.3-6.6c1.5,0,2.8,0.2,3.9,0.7v2.8
			c-1.3-0.2-2.4-0.3-3.1-0.3c-1.2,0-2.1,0.2-2.5,0.7c-0.5,0.5-0.7,1.2-0.7,2.3v3.6h6.1v3.1h-6.1v16.9H290.8z"/>
		<path class="st3" d="M157.3,258.2l-0.6-2.4c-2.2,2-4.8,3-7.9,3c-2.2,0-4.2-0.6-5.9-1.7c-1.7-1.1-3-2.8-4-4.9
			c-0.9-2.1-1.4-4.6-1.4-7.5c0-4.4,1.1-8,3.2-10.6c2.1-2.7,4.9-4,8.3-4c2.8,0,5.3,0.8,7.3,2.4v-13.8h7.8v39.5H157.3z M151.4,252.9
			c1.7,0,3.3-0.5,4.9-1.5v-14.1c-1.5-0.9-3.3-1.3-5.3-1.3c-1.9,0-3.3,0.7-4.2,2.1c-0.9,1.4-1.4,3.5-1.4,6.4c0,2.9,0.5,5,1.5,6.4
			C147.8,252.2,149.3,252.9,151.4,252.9z"/>
		<path class="st3" d="M177.4,246.4c0.1,2.4,0.9,4.1,2.1,5.1c1.3,1.1,3.3,1.6,6,1.6c2.4,0,5.2-0.4,8.3-1.3v5.2
			c-1.2,0.6-2.7,1.1-4.5,1.5c-1.7,0.4-3.5,0.5-5.4,0.5c-4.5,0-8-1.2-10.3-3.7c-2.4-2.5-3.6-6.1-3.6-10.8c0-4.6,1.2-8.1,3.5-10.6
			c2.4-2.5,5.6-3.8,9.8-3.8c3.5,0,6.2,1,8.2,2.9c1.9,1.9,2.9,4.7,2.9,8.3c0,0.8-0.1,1.7-0.2,2.7c-0.1,1-0.2,1.8-0.4,2.5H177.4z
			 M183.2,235.5c-1.7,0-3.1,0.5-4.1,1.6c-1,1.1-1.6,2.6-1.7,4.6h10.5v-0.9C187.8,237.2,186.3,235.5,183.2,235.5z"/>
		<path class="st3" d="M212.1,250.7c0-0.7-0.2-1.3-0.6-1.7c-0.4-0.4-1.2-0.8-2.5-1.3l-4.2-1.7c-2.2-0.9-3.7-1.9-4.7-3.2
			c-1-1.2-1.4-2.8-1.4-4.8c0-2.4,1-4.4,2.9-5.9c1.9-1.5,4.5-2.2,7.8-2.2c3,0,5.8,0.6,8.3,1.8v5.2c-2.7-0.8-5.2-1.2-7.6-1.2
			c-1.5,0-2.5,0.2-3.2,0.5c-0.7,0.4-1,0.9-1,1.7c0,0.6,0.2,1.1,0.6,1.5c0.4,0.4,1.3,0.8,2.6,1.4l4.1,1.7c2.2,0.9,3.8,1.9,4.7,3.1
			c0.9,1.2,1.4,2.7,1.4,4.6c0,2.6-1,4.8-3,6.4c-2,1.6-4.7,2.4-7.9,2.4c-3.7,0-6.9-0.7-9.7-2.2v-5.2c3.5,1.1,6.8,1.7,9.7,1.7
			C210.8,253.3,212.1,252.4,212.1,250.7z"/>
		<path class="st3" d="M240.5,257.5c-1.9,0.7-4.1,1.1-6.5,1.1c-3,0-5.3-0.7-6.7-2.1c-1.4-1.4-2.2-3.6-2.2-6.6v-13.2h-4.1v-4.8
			l4.3-0.9l1.2-7.5h6.4v7.4h7.4v5.8H233v12.8c0,1.1,0.3,1.9,0.9,2.4c0.6,0.5,1.5,0.7,2.9,0.7c1.1,0,2.4-0.1,3.8-0.3V257.5z"/>
		<path class="st3" d="M245.3,258.2v-27.3h6.4l1,4.1c1.4-1.6,2.8-2.7,4-3.3c1.3-0.7,2.6-1,4-1c0.7,0,1.4,0.1,2.1,0.2v7.2
			c-1-0.2-2.1-0.3-3.3-0.3c-2.3,0-4.5,0.4-6.5,1.2v19.3H245.3z"/>
		<path class="st3" d="M285.1,258.2l-0.7-2.9c-3.2,2.5-6.5,3.7-9.9,3.7c-2.4,0-4.3-0.7-5.7-2.2c-1.4-1.4-2-3.4-2-6v-20h7.8v17.8
			c0,2.9,1.2,4.3,3.7,4.3c1.9,0,3.7-0.6,5.5-1.7v-20.4h7.8v27.3H285.1z"/>
		<path class="st3" d="M318.7,257c-1,0.6-2.1,1-3.5,1.3c-1.4,0.3-2.8,0.5-4.2,0.5c-4.3,0-7.7-1.2-10-3.6c-2.3-2.4-3.4-5.9-3.4-10.5
			c0-4.5,1.2-8.1,3.6-10.6c2.4-2.5,5.8-3.8,10.1-3.8c2.6,0,5,0.6,7.2,1.7v5.2c-2.1-0.6-4-0.9-5.8-0.9c-2.5,0-4.3,0.6-5.5,1.9
			c-1.2,1.3-1.8,3.3-1.8,6v0.7c0,2.7,0.6,4.7,1.7,6c1.2,1.3,2.9,1.9,5.4,1.9c1.7,0,3.8-0.3,6.1-1V257z"/>
		<path class="st3" d="M341.6,257.5c-1.9,0.7-4.1,1.1-6.5,1.1c-3,0-5.3-0.7-6.7-2.1c-1.4-1.4-2.2-3.6-2.2-6.6v-13.2h-4.1v-4.8
			l4.3-0.9l1.2-7.5h6.4v7.4h7.4v5.8h-7.4v12.8c0,1.1,0.3,1.9,0.9,2.4c0.6,0.5,1.5,0.7,2.9,0.7c1.1,0,2.4-0.1,3.8-0.3V257.5z"/>
		<path class="st3" d="M350.5,226.7c-1.4,0-2.4-0.4-3.3-1.1c-0.8-0.7-1.2-1.8-1.2-3c0-1.3,0.4-2.3,1.2-3c0.8-0.7,1.9-1.1,3.3-1.1
			c1.4,0,2.4,0.4,3.3,1.1c0.8,0.7,1.2,1.8,1.2,3c0,1.3-0.4,2.3-1.2,3C353,226.3,351.9,226.7,350.5,226.7z M346.6,258.2v-27.3h7.8
			v27.3H346.6z"/>
		<path class="st3" d="M369,258.2l-10.4-27.3h8.3l5.8,20.3l5.9-20.3h8.1l-10.3,27.3H369z"/>
		<path class="st3" d="M396,246.4c0.1,2.4,0.9,4.1,2.1,5.1c1.3,1.1,3.3,1.6,6,1.6c2.4,0,5.2-0.4,8.3-1.3v5.2
			c-1.2,0.6-2.7,1.1-4.5,1.5c-1.7,0.4-3.5,0.5-5.4,0.5c-4.5,0-8-1.2-10.3-3.7c-2.4-2.5-3.6-6.1-3.6-10.8c0-4.6,1.2-8.1,3.5-10.6
			c2.4-2.5,5.6-3.8,9.8-3.8c3.5,0,6.2,1,8.2,2.9c1.9,1.9,2.9,4.7,2.9,8.3c0,0.8-0.1,1.7-0.2,2.7c-0.1,1-0.2,1.8-0.4,2.5H396z
			 M401.8,235.5c-1.7,0-3.1,0.5-4.1,1.6c-1,1.1-1.6,2.6-1.7,4.6h10.5v-0.9C406.4,237.2,404.9,235.5,401.8,235.5z"/>
		<path class="st3" d="M174.8,305.5v-18.9c0-1.8-0.3-3.2-1-4.1c-0.7-0.9-1.8-1.3-3.3-1.3c-2.7,0-5.4,0.8-8.1,2.5
			c0,0.3,0.1,0.5,0.1,0.8c0,0.3,0,0.6,0,0.9v20.1H157v-18.9c0-1.8-0.3-3.2-1-4.1c-0.7-0.9-1.8-1.3-3.3-1.3c-2.8,0-5.5,0.8-8,2.4
			v21.9h-5.4v-27.9h4.6l0.5,2.8c3.5-2.4,6.9-3.6,10.3-3.6c3.4,0,5.7,1.3,6.9,3.9c3.6-2.6,7.3-3.9,10.9-3.9c2.5,0,4.5,0.7,5.8,2.1
			c1.4,1.4,2,3.5,2,6.1v20.4H174.8z"/>
		<path class="st3" d="M192.1,292.7c0.1,3.2,0.9,5.5,2.3,7c1.5,1.5,3.8,2.3,6.9,2.3c2.9,0,5.8-0.6,8.8-1.7v3.9
			c-2.6,1.4-5.9,2.1-9.7,2.1c-4.5,0-7.9-1.2-10.2-3.7c-2.3-2.5-3.5-6.2-3.5-11c0-4.7,1.2-8.3,3.5-10.9c2.3-2.6,5.5-3.9,9.7-3.9
			c3.5,0,6.2,1,8,2.9c1.9,2,2.8,4.7,2.8,8.3c0,1.7-0.1,3.3-0.4,4.7H192.1z M199.7,280.9c-2.3,0-4.1,0.7-5.4,2.1
			c-1.3,1.4-2,3.4-2.2,6.1h13.7c0-0.3,0.1-0.8,0.1-1.4c0-2.2-0.5-3.9-1.6-5.1C203.2,281.5,201.7,280.9,199.7,280.9z"/>
		<path class="st3" d="M230.4,298c0-0.9-0.3-1.6-0.9-2.1c-0.6-0.6-1.6-1.1-3.1-1.6l-4.7-1.8c-4.1-1.5-6.1-4.1-6.1-7.7
			c0-2.4,0.9-4.3,2.8-5.8c1.8-1.5,4.3-2.2,7.3-2.2c2.9,0,5.6,0.6,8.2,1.8v3.8c-2.9-0.9-5.5-1.4-7.9-1.4c-3.5,0-5.3,1.2-5.3,3.6
			c0,1,0.3,1.7,0.9,2.3c0.6,0.5,1.7,1.2,3.5,1.8l4.3,1.6c2.2,0.8,3.7,1.8,4.7,3c1,1.2,1.4,2.6,1.4,4.5c0,2.6-1,4.7-2.9,6.2
			c-1.9,1.5-4.5,2.3-7.7,2.3c-3.6,0-6.8-0.7-9.5-2.1v-3.8c3.4,1.1,6.6,1.7,9.6,1.7c1.8,0,3.2-0.3,4.1-1
			C229.9,300.3,230.4,299.3,230.4,298z"/>
		<path class="st3" d="M254.1,298c0-0.9-0.3-1.6-0.9-2.1c-0.6-0.6-1.6-1.1-3.1-1.6l-4.7-1.8c-4.1-1.5-6.1-4.1-6.1-7.7
			c0-2.4,0.9-4.3,2.8-5.8c1.8-1.5,4.3-2.2,7.3-2.2c2.9,0,5.6,0.6,8.2,1.8v3.8c-2.9-0.9-5.5-1.4-7.9-1.4c-3.5,0-5.3,1.2-5.3,3.6
			c0,1,0.3,1.7,0.9,2.3c0.6,0.5,1.7,1.2,3.5,1.8l4.3,1.6c2.2,0.8,3.7,1.8,4.7,3c1,1.2,1.4,2.6,1.4,4.5c0,2.6-1,4.7-2.9,6.2
			c-1.9,1.5-4.5,2.3-7.7,2.3c-3.6,0-6.8-0.7-9.5-2.1v-3.8c3.4,1.1,6.6,1.7,9.6,1.7c1.8,0,3.2-0.3,4.1-1
			C253.7,300.3,254.1,299.3,254.1,298z"/>
		<path class="st3" d="M281.2,305.5l-0.4-2.9c-1.3,1.1-2.8,2-4.4,2.6c-1.6,0.6-3.2,0.9-4.8,0.9c-2.6,0-4.7-0.7-6.2-2.2
			c-1.6-1.5-2.3-3.5-2.3-6c0-2.7,1-4.8,2.9-6.4c1.9-1.6,4.5-2.4,7.7-2.4c2.1,0,4.4,0.3,6.9,0.9v-3.6c0-2-0.4-3.4-1.3-4.2
			c-0.9-0.8-2.4-1.2-4.6-1.2c-3.1,0-6.3,0.6-9.7,1.7V279c1.3-0.7,2.9-1.2,4.8-1.6c1.9-0.4,3.8-0.6,5.8-0.6c3.5,0,6,0.7,7.7,2.2
			c1.6,1.4,2.5,3.7,2.5,6.6v19.9H281.2z M272.9,302.1c2.5,0,5-0.9,7.6-2.8v-5.6c-1.9-0.5-3.8-0.7-5.8-0.7c-4.1,0-6.2,1.6-6.2,4.8
			c0,1.4,0.4,2.5,1.2,3.2C270.4,301.7,271.5,302.1,272.9,302.1z"/>
		<path class="st3" d="M312.1,301.7c-1.2,1.1-2.6,1.9-4,2.4c-1.4,0.6-2.9,0.9-4.3,0.9c-2.2,0-4.2-0.5-5.9-1.6
			c-1.7-1.1-3.1-2.7-4-4.8c-1-2.1-1.5-4.6-1.5-7.4c0-4.4,1-7.9,3.1-10.5c2.1-2.6,4.9-3.9,8.4-3.9c3.3,0,6.2,1.1,8.6,3.4l0.4-2.6h4.6
			v26.2c0,4.4-1.2,7.7-3.5,10.1c-2.3,2.4-5.6,3.6-9.9,3.6c-3.4,0-6.6-0.7-9.5-2.2v-3.9c3.4,1.1,6.4,1.7,9.1,1.7
			c2.9,0,5.1-0.7,6.4-2.1c1.4-1.4,2-3.7,2-6.8V301.7z M305.4,300.6c2.3,0,4.5-0.8,6.8-2.5v-14.5c-1.1-0.8-2.2-1.5-3.4-1.8
			c-1.1-0.4-2.4-0.6-3.7-0.6c-4.8,0-7.1,3.2-7.1,9.7c0,3.2,0.6,5.6,1.9,7.2C301,299.8,302.9,300.6,305.4,300.6z"/>
		<path class="st3" d="M329.5,292.7c0.1,3.2,0.9,5.5,2.3,7c1.5,1.5,3.8,2.3,6.9,2.3c2.9,0,5.8-0.6,8.8-1.7v3.9
			c-2.6,1.4-5.9,2.1-9.7,2.1c-4.5,0-7.9-1.2-10.2-3.7c-2.3-2.5-3.5-6.2-3.5-11c0-4.7,1.2-8.3,3.5-10.9c2.3-2.6,5.5-3.9,9.7-3.9
			c3.5,0,6.2,1,8,2.9c1.9,2,2.8,4.7,2.8,8.3c0,1.7-0.1,3.3-0.4,4.7H329.5z M337.1,280.9c-2.3,0-4.1,0.7-5.4,2.1
			c-1.3,1.4-2,3.4-2.2,6.1h13.7c0-0.3,0.1-0.8,0.1-1.4c0-2.2-0.5-3.9-1.6-5.1C340.6,281.5,339.1,280.9,337.1,280.9z"/>
		<path class="st3" d="M148.4,341c0-0.7-0.2-1.2-0.6-1.6c-0.4-0.4-1.2-0.8-2.3-1.2l-3.5-1.3c-3-1.1-4.5-3-4.5-5.7
			c0-1.8,0.7-3.2,2.1-4.3c1.4-1.1,3.2-1.6,5.4-1.6c2.2,0,4.2,0.4,6.1,1.3v2.9c-2.1-0.7-4.1-1-5.9-1c-2.6,0-3.9,0.9-3.9,2.7
			c0,0.7,0.2,1.3,0.7,1.7c0.4,0.4,1.3,0.9,2.6,1.3l3.2,1.2c1.6,0.6,2.8,1.4,3.5,2.2c0.7,0.9,1.1,2,1.1,3.3c0,1.9-0.7,3.5-2.2,4.6
			c-1.4,1.1-3.4,1.7-5.8,1.7c-2.7,0-5-0.5-7-1.6v-2.9c2.6,0.8,4.9,1.3,7.1,1.3c1.3,0,2.4-0.3,3-0.8C148,342.7,148.4,341.9,148.4,341
			z"/>
		<path class="st3" d="M159.2,337c0.1,2.3,0.6,4.1,1.7,5.2c1.1,1.1,2.8,1.7,5.1,1.7c2.2,0,4.3-0.4,6.6-1.3v2.9
			c-2,1.1-4.4,1.6-7.2,1.6c-3.4,0-5.9-0.9-7.6-2.8c-1.7-1.9-2.6-4.6-2.6-8.2c0-3.5,0.9-6.2,2.6-8.1c1.7-1.9,4.1-2.9,7.2-2.9
			c2.6,0,4.6,0.7,6,2.2c1.4,1.5,2.1,3.5,2.1,6.2c0,1.3-0.1,2.4-0.3,3.5H159.2z M164.8,328.2c-1.7,0-3.1,0.5-4,1.5
			c-1,1-1.5,2.5-1.6,4.6h10.2c0-0.2,0-0.6,0-1.1c0-1.7-0.4-2.9-1.2-3.8C167.4,328.7,166.3,328.2,164.8,328.2z"/>
		<path class="st3" d="M192.3,345.7c-1.6,0.8-3.4,1.2-5.5,1.2c-3.2,0-5.7-0.9-7.4-2.8c-1.7-1.8-2.6-4.5-2.6-8c0-3.5,0.9-6.1,2.6-8
			c1.8-1.9,4.2-2.8,7.5-2.8c1.8,0,3.5,0.4,5.2,1.1v2.9c-1.6-0.5-3.1-0.7-4.6-0.7c-2.3,0-3.9,0.6-4.9,1.7c-1,1.2-1.5,3-1.5,5.5v0.5
			c0,2.5,0.5,4.3,1.5,5.5c1,1.2,2.6,1.7,4.8,1.7c1.5,0,3.1-0.3,4.8-0.8V345.7z"/>
		<path class="st3" d="M210.9,346.5l-0.4-2.2c-2.5,1.9-5.1,2.8-7.8,2.8c-1.9,0-3.4-0.5-4.5-1.6c-1-1.1-1.6-2.6-1.6-4.6v-15.1h4v13.8
			c0,1.5,0.3,2.6,0.9,3.3c0.6,0.7,1.5,1,2.7,1c2,0,3.9-0.7,5.9-2v-16.1h4v20.7H210.9z"/>
		<path class="st3" d="M220.3,346.5v-20.7h3.4l0.4,3.1c0.8-0.8,1.5-1.5,2.1-1.9c0.7-0.4,1.3-0.8,2-1c0.7-0.2,1.4-0.3,2.2-0.3
			c0.5,0,1.1,0,1.7,0.1v3.7c-0.9-0.1-1.6-0.2-2.2-0.2c-2.2,0-4,0.7-5.6,2v15.3H220.3z"/>
		<path class="st3" d="M238,337c0.1,2.3,0.6,4.1,1.7,5.2c1.1,1.1,2.8,1.7,5.1,1.7c2.2,0,4.3-0.4,6.6-1.3v2.9c-2,1.1-4.4,1.6-7.2,1.6
			c-3.4,0-5.9-0.9-7.6-2.8c-1.7-1.9-2.6-4.6-2.6-8.2c0-3.5,0.9-6.2,2.6-8.1c1.7-1.9,4.1-2.9,7.2-2.9c2.6,0,4.6,0.7,6,2.2
			c1.4,1.5,2.1,3.5,2.1,6.2c0,1.3-0.1,2.4-0.3,3.5H238z M243.6,328.2c-1.7,0-3.1,0.5-4,1.5c-1,1-1.5,2.5-1.6,4.6h10.2
			c0-0.2,0-0.6,0-1.1c0-1.7-0.4-2.9-1.2-3.8C246.3,328.7,245.1,328.2,243.6,328.2z"/>
		<path class="st3" d="M264.2,346.2c-0.9,0.3-1.9,0.5-2.9,0.5c-1.4,0-2.5-0.4-3.3-1.2c-0.8-0.8-1.1-2-1.1-3.6v-25.6h4v25.4
			c0,0.6,0.1,1.1,0.4,1.4c0.3,0.3,0.7,0.4,1.3,0.4c0.5,0,1.1,0,1.7-0.1V346.2z"/>
		<path class="st3" d="M274,346.7l-8.3-20.9h4.3l6,17l5.8-17h4.2l-9.4,24.4c-0.7,1.9-1.6,3.2-2.6,4c-1,0.8-2.3,1.2-3.8,1.2
			c-1.1,0-2.2-0.2-3.2-0.6V352c0.7,0.2,1.5,0.3,2.3,0.3c1,0,1.8-0.3,2.4-0.8c0.6-0.5,1.1-1.4,1.6-2.7L274,346.7z"/>
		<path class="st3" d="M289.2,346.9c-0.8,0-1.4-0.3-1.9-0.8c-0.5-0.5-0.7-1.2-0.7-1.9c0-0.8,0.2-1.4,0.7-1.9
			c0.5-0.5,1.1-0.8,1.9-0.8c0.8,0,1.4,0.3,1.9,0.8c0.5,0.5,0.7,1.2,0.7,1.9c0,0.8-0.2,1.4-0.7,1.9
			C290.7,346.7,290,346.9,289.2,346.9z"/>
	</g>
</g>
</svg>
