<?xml version="1.0" encoding="utf-8"?>
<!-- Generator: Adobe Illustrator 23.0.2, SVG Export Plug-In . SVG Version: 6.00 Build 0)  -->
<svg version="1.1" xmlns="http://www.w3.org/2000/svg" xmlns:xlink="http://www.w3.org/1999/xlink" x="0px" y="0px" width="824px"
	 height="614.1px" viewBox="0 0 824 614.1" style="enable-background:new 0 0 824 614.1;" xml:space="preserve">
<style type="text/css">
	.st0{fill:#E6E6E6;}
	.st1{fill:#E0E0E0;}
	.st2{fill:#FAFAFA;}
	.st3{fill:#F5F5F5;}
	.st4{fill:#F0F0F0;}
	.st5{fill:#FFFFFF;}
	.st6{fill:#E58A7B;}
	.st7{fill:#407BFF;}
	.st8{opacity:0.2;}
	.st9{fill:#E8ECF1;}
	.st10{fill:#263238;}
	.st11{fill:#CF6F64;}
	.st12{fill:#DF5753;}
	.st13{opacity:0.56;fill:#FAFAFA;}
	.st14{opacity:7.000000e-02;fill:#407BFF;}
	.st15{opacity:0.47;fill:#407BFF;}
	.st16{opacity:0.1;fill:#FFFFFF;}
	.st17{opacity:0.6;}
	.st18{opacity:0.4;}
	.st19{opacity:0.4;fill:#FFFFFF;}
	.st20{opacity:0.3;fill:#FFFFFF;}
</style>
<g id="Background_complete">
	<g>
		<g>
			<rect y="539.6" class="st0" width="824" height="0.4"/>
			<rect x="151.1" y="564.6" class="st0" width="54.6" height="0.4"/>
			<rect x="102.2" y="564.6" class="st0" width="31.6" height="0.4"/>
			<rect x="315.4" y="570.6" class="st0" width="31.6" height="0.4"/>
			<rect x="440.7" y="579.8" class="st0" width="71.2" height="0.4"/>
			<rect x="415.6" y="579.8" class="st0" width="10.4" height="0.4"/>
			<rect x="592.7" y="570.6" class="st0" width="154.4" height="0.4"/>
			<g>
				<path class="st0" d="M390.6,466.1H72.4c-5.2,0-9.4-4.2-9.4-9.4V9.4C63,4.2,67.2,0,72.4,0h318.2c5.2,0,9.4,4.2,9.4,9.4v447.3
					C400,461.9,395.8,466.1,390.6,466.1z M72.4,0.4c-5,0-9,4-9,9v447.3c0,5,4,9,9,9h318.2c5,0,9-4,9-9V9.4c0-5-4-9-9-9H72.4z"/>
				<path class="st0" d="M747.1,466.1H428.8c-5.2,0-9.4-4.2-9.4-9.4V9.4c0-5.2,4.2-9.4,9.4-9.4h318.2c5.2,0,9.4,4.2,9.4,9.4v447.3
					C756.5,461.9,752.2,466.1,747.1,466.1z M428.8,0.4c-5,0-9,4-9,9v447.3c0,5,4,9,9,9h318.2c5,0,9-4,9-9V9.4c0-5-4-9-9-9H428.8z"/>
			</g>
		</g>
		<g>
			<rect x="404.4" y="398.9" class="st1" width="36.2" height="143.8"/>
			<polygon class="st2" points="433.8,542.6 440.7,542.6 440.7,523 426.6,523 			"/>
			<rect x="245.6" y="398.9" class="st1" width="36.2" height="143.8"/>
			<rect x="275.9" y="398.9" class="st2" width="164.8" height="131.7"/>
			<path class="st1" d="M434.7,405.3v34.9H281.8v-34.9H434.7 M435.3,404.7H281.2v36.1h154.1V404.7L435.3,404.7z"/>
			<polygon class="st2" points="282.8,542.6 275.9,542.6 275.9,523 290,523 			"/>
			<path class="st0" d="M354.6,422.8c0,2,1.6,3.6,3.6,3.6c2,0,3.6-1.6,3.6-3.6c0-2-1.6-3.6-3.6-3.6
				C356.3,419.1,354.6,420.7,354.6,422.8z"/>
			<path class="st1" d="M434.7,447.3v34.9H281.8v-34.9H434.7 M435.3,446.7H281.2v36.1h154.1V446.7L435.3,446.7z"/>
			<path class="st0" d="M354.6,464.7c0,2,1.6,3.6,3.6,3.6c2,0,3.6-1.6,3.6-3.6s-1.6-3.6-3.6-3.6
				C356.3,461.1,354.6,462.7,354.6,464.7z"/>
			<path class="st1" d="M434.7,489.3v34.9H281.8v-34.9H434.7 M435.3,488.6H281.2v36.1h154.1V488.6L435.3,488.6z"/>
			<path class="st0" d="M354.6,506.7c0,2,1.6,3.6,3.6,3.6c2,0,3.6-1.6,3.6-3.6s-1.6-3.6-3.6-3.6
				C356.3,503.1,354.6,504.7,354.6,506.7z"/>
		</g>
		<g>
			<rect x="223.5" y="315.4" class="st1" width="36.2" height="227.3"/>
			<polygon class="st2" points="252.9,542.6 259.7,542.6 259.7,523 245.6,523 			"/>
			<rect x="88.1" y="315.4" class="st1" width="36.2" height="227.3"/>
			<rect x="118.3" y="315.4" class="st2" width="141.4" height="215.2"/>
			<path class="st1" d="M253.7,321.5v48.7H124.4v-48.7H253.7 M254.4,320.7H123.6v50.2h130.8V320.7L254.4,320.7z"/>
			<path class="st1" d="M253.7,376.1v129.3h-61.6V376.1H253.7 M254.4,375.4h-63.1v130.8h63.1V375.4L254.4,375.4z"/>
			<path class="st1" d="M186,376.1v129.3h-61.6V376.1H186 M186.7,375.4h-63.1v130.8h63.1V375.4L186.7,375.4z"/>
			<polygon class="st2" points="125.2,542.6 118.3,542.6 118.3,523 132.4,523 			"/>
			<path class="st0" d="M185.4,345.8c0,2,1.6,3.6,3.6,3.6c2,0,3.6-1.6,3.6-3.6c0-2-1.6-3.6-3.6-3.6
				C187,342.2,185.4,343.8,185.4,345.8z"/>
			<path class="st0" d="M198.4,437.7c0,2,1.6,3.6,3.6,3.6c2,0,3.6-1.6,3.6-3.6c0-2-1.6-3.6-3.6-3.6
				C200.1,434,198.4,435.7,198.4,437.7z"/>
			<path class="st0" d="M172.3,437.7c0,2,1.6,3.6,3.6,3.6c2,0,3.6-1.6,3.6-3.6c0-2-1.6-3.6-3.6-3.6C174,434,172.3,435.7,172.3,437.7
				z"/>
		</g>
		<path class="st1" d="M168.2,252h-15.3c0,0,2.7,14.1,2.7,22.4c0,8.3-11.6,40.9,5,40.9c16.6,0,5-32.6,5-40.9
			C165.6,266.1,168.2,252,168.2,252z"/>
		<path class="st3" d="M110.1,285.4v9.9c0,11,9,20,20,20h9.9c11,0,20-9,20-20v-9.9H110.1z"/>
		<path class="st1" d="M322.5,377.9c0,11.5,12.9,21,28.7,21h14.2c15.8,0,28.7-9.4,28.7-21H322.5z"/>
		<g>
			<path class="st1" d="M699.8,361c-8.6,7-20.6,20-31.5,38.1c-7.3,12.1-11.7,24.8-13.6,41.5c0-18.9,0.1-39.3,0.2-58.5
				c2.2-4.9,7.2-16.3,10.8-25.3c12-30,16.5-37.4,27.2-63.3c14.4-34.6,29.1-75.6,24.9-72.3c-8.6,6.7-41.6,68.4-45.1,77.2
				c-12.3,30.4-15.7,52.5-17.8,73.9c0.1-18,0.1-34.6,0.2-47.4c0.2-41.7,0.9-55.2,1.3-59.3c1.3-2.1,2.9-4.6,3.8-5.9
				c7.7-11.2,10.7-20.7,18-37.4c10.3-23.7,19.2-65.7,16.6-63.5c-10.8,8.8-19.4,27.8-30.6,52c-11.2,24.2-8,38.1-10.2,58.7
				c-0.5,4.1-0.8,19.3-1.1,40.5c-2.9-22.6-8.4-37.4-18.3-51c-12.3-16.6-24.1-27.9-32.8-33.7c-8.7-5.9,15,35,26.4,52.8
				c10.1,15.9,19.4,29.9,24.7,43.7c-0.3,28.7-0.4,65.1-0.4,98.9c-2.6-15.4-6.9-32-12.5-44.8c-6.8-15.4-17.3-39.1-25.6-47.1
				c-2-1.9,8.7,44.1,15.6,56.3c6.9,12.2,11.9,23.8,16.3,30.7c1,1.6,4.4,7.9,6.3,11.5c0,41.3,0.2,77.8,0.6,90.2h1.8
				c-0.1-3.2-0.1-24.2-0.1-52c4.3-15.1,14.1-32.3,22.2-48.1C685.7,400,708.4,354,699.8,361z"/>
			<g>
				<polygon class="st4" points="679.7,542.6 628,542.6 624.1,492 683.6,492 				"/>
				<polygon class="st3" points="687.5,497.9 620.3,497.9 618.4,480.8 689.4,480.8 				"/>
			</g>
		</g>
		<g>
			<rect x="112.4" y="33.9" class="st1" width="92.4" height="101.4"/>
			<rect x="119.4" y="33.9" class="st3" width="95.4" height="101.4"/>
			
				<rect x="124.4" y="44.9" transform="matrix(-1.836970e-16 1 -1 -1.836970e-16 251.6514 -82.5027)" class="st5" width="85.4" height="79.4"/>
			
				<rect x="145.1" y="64.1" transform="matrix(-1.836970e-16 1 -1 -1.836970e-16 251.6514 -82.5027)" class="st3" width="44" height="40.9"/>
		</g>
		<g>
			<g>
				<rect x="590" y="45.7" class="st1" width="85.8" height="94.2"/>
				<rect x="596.4" y="45.7" class="st3" width="88.6" height="94.2"/>
				
					<rect x="601.1" y="55.9" transform="matrix(-1.836970e-16 1 -1 -1.836970e-16 733.5352 -547.9437)" class="st5" width="79.4" height="73.8"/>
			</g>
			<circle class="st3" cx="640.7" cy="92.8" r="23"/>
		</g>
		<g>
			<g>
				<rect x="232.2" y="94.3" class="st1" width="68.5" height="75.2"/>
				<rect x="237.4" y="94.3" class="st3" width="70.8" height="75.2"/>
				
					<rect x="241.1" y="102.5" transform="matrix(-1.836970e-16 1 -1 -1.836970e-16 404.7357 -140.8136)" class="st5" width="63.4" height="58.9"/>
				<polygon class="st3" points="272.8,115.9 256.7,143.8 288.9,143.8 				"/>
			</g>
		</g>
	</g>
</g>
<g id="Shadow">
	<ellipse class="st3" cx="412" cy="595.4" rx="319.5" ry="18.7"/>
</g>
<g id="Character_2">
	<g>
		<path class="st6" d="M575.6,178.8l-16.3-6.6c0,0-21.6,39.3-27.8,41.3c-8.4,2.7-25.8,10.2-36.1,11.6c-1.4,1.6-3.7,6.8-3.5,8.6
			c13.9,4.6,44.3-1.5,50.8-6.4C557.6,216.3,575.6,178.8,575.6,178.8z"/>
		<g>
			<path class="st7" d="M580.6,169.8c3,11.3-13.5,33.9-13.5,33.9l-21.7-12.2c0,0,4-9.3,9-18.8C562.4,157.5,577.1,157,580.6,169.8z"
				/>
			<path class="st8" d="M580.6,169.8c3,11.3-13.5,33.9-13.5,33.9l-21.7-12.2c0,0,4-9.3,9-18.8C562.4,157.5,577.1,157,580.6,169.8z"
				/>
		</g>
		<path class="st8" d="M554.1,196.4l8.5,4.8l1.5-26.1C559.1,178.9,555.6,190.3,554.1,196.4z"/>
		<g>
			<path class="st7" d="M566.4,161.4c0,0-16.8,37.5-7,107.2c20,0,56.6,0,66.4,0c1.1-10.2-2.4-59.9,10.2-107.9c0,0-11.2-2.3-22.1-2.8
				c-8.5-0.4-20.7-0.7-28.2,0C575.8,158.8,566.4,161.4,566.4,161.4z"/>
			<path class="st8" d="M566.4,161.4c0,0-16.8,37.5-7,107.2c20,0,56.6,0,66.4,0c1.1-10.2-2.4-59.9,10.2-107.9c0,0-11.2-2.3-22.1-2.8
				c-8.5-0.4-20.7-0.7-28.2,0C575.8,158.8,566.4,161.4,566.4,161.4z"/>
		</g>
		<path class="st9" d="M551,596.9c-0.1,1.8,25.1,3.2,56.2,3.2c31.1,0,56.5-1.4,56.6-3.2c0.1-1.8-25.1-3.2-56.2-3.2
			C576.4,593.7,551.1,595.1,551,596.9z"/>
		
			<rect x="589.7" y="553.7" transform="matrix(0.9331 -0.3595 0.3595 0.9331 -164.3029 252.2697)" class="st6" width="12.7" height="28.2"/>
		<polygon class="st6" points="647.7,584.2 635.3,584.2 630.8,555.5 643.2,555.5 		"/>
		<path class="st10" d="M634.5,582.8l13.9,0c0.5,0,0.9,0.4,1,0.8l1.8,11c0.2,1.1-0.8,2.2-1.9,2.2c-4.9-0.1-7.2-0.4-13.3-0.4
			c-3.8,0-11.6,0.4-16.8,0.4c-5.1,0-5.6-5.1-3.4-5.6c9.7-2.1,13.5-5,16.7-7.7C633.1,583,633.8,582.8,634.5,582.8z"/>
		<path class="st10" d="M593.2,578.4l13.2-3.8c0.5-0.1,1,0.1,1.2,0.5l4.9,9.9c0.5,1-0.1,2.3-1.2,2.6c-4.8,1.3-8,2.1-14,3.9
			c-4.1,1.2-8.4,3.2-12.4,4.5c-2.8,0.9-9.5,0.9-12.9,0.9c-5.1,0-6.2-5.4-4-5.6c5.5-0.6,6.3-0.3,9.3-1.9c5-2.5,8.9-4.6,13.3-9.2
			C591.3,579.4,592.2,578.7,593.2,578.4z"/>
		<path class="st6" d="M497.4,225l-13.7-5.7l-5.6,15.1c0,0,7.9,1.4,16.9,0L497.4,225z"/>
		<polygon class="st6" points="473.6,218.9 473.3,228.9 478.1,234.4 483.8,219.2 		"/>
		<g>
			
				<rect x="587.2" y="554.2" transform="matrix(0.9329 -0.3601 0.3601 0.9329 -162.3575 251.3955)" class="st11" width="12.7" height="14.5"/>
			<polygon class="st11" points="643.2,555.5 630.8,555.5 633.1,570.3 645.6,570.3 			"/>
		</g>
		<path class="st8" d="M557.2,249.7c0.2,3,0.5,6,0.9,9.2l49.3-16c7.7-2.3,14.4-7.1,19-13.8c0.2-4.4,0.4-9,0.8-13.9
			c0.2-2.4,0.4-4.8,0.6-7.2c0.2-2.5,0.5-5.1,0.8-7.7L557.2,249.7z"/>
		<path class="st5" d="M573.3,195.7l-1.7-0.2c1-8.2,7.1-14.7,13.6-14.6l0,1.7C579.6,182.4,574.2,188.3,573.3,195.7z"/>
		<path class="st5" d="M582.1,210.9c-0.1,0-0.2,0-0.3,0l0-1.7c5.7,0.2,11-5.7,11.9-13.1l1.7,0.2
			C594.5,204.4,588.5,210.9,582.1,210.9z"/>
		<path class="st6" d="M612.9,126.1c-2.3,9.1-5.1,25.7,0.9,31.8c0,0-4.2,9.2-21.1,9.2c-15.4,0-7.2-9.2-7.2-9.2
			c10.3-2.4,10.4-9.9,9.1-17L612.9,126.1z"/>
		<path class="st11" d="M605.5,132.2l-10.8,8.7c0.3,1.7,0.6,3.4,0.6,5c3.1,3.1,9.5-4.8,10.1-8.9
			C605.8,135.1,605.8,133.1,605.5,132.2z"/>
		<path class="st11" d="M576.2,126c1.6,2.8,4.4,4.6,7,5.2c4,0.9,5.9-2.8,4.9-6.4c-1-3.3-4.2-7.7-8.2-7
			C576,118.6,574.4,122.8,576.2,126z"/>
		<path class="st10" d="M582.8,97c-6.2,2.8-8.3,27.3-0.6,30.9C589.9,131.5,594.5,91.6,582.8,97z"/>
		<path class="st6" d="M614.8,112.5c-1.5,12.3-1.7,19.5-8.3,25.8c-9.9,9.5-24.7,3.9-26.9-8.4c-2-11,0.8-29.3,13.1-34.2
			C604.8,90.9,616.3,100.2,614.8,112.5z"/>
		<path class="st10" d="M594.6,103.3c9.1-2.3,15.8-3.9,13.4,3.7c-3.2,10.1-7,20-1.9,20.4c3.1,0.3,17-5.6,15.2-11.5
			c-1.5-5.2,4.9-6.6,6.1-9.2c4.3-9.5-7.9-8.3-5.8-14c2.1-5.6-9.8-15.1-16.5-10.4c-10.7,7.5-29.1,7.4-19.5-4.9c6.9-8.8-5.4-7-5.4-7
			s7.5,4.4-5.1,11.3C561.8,88.9,574,108.6,594.6,103.3z"/>
		<path class="st6" d="M619.6,126c-1.9,2.8-4.9,4.6-7.6,5.2c-4.1,0.9-5.6-2.8-4.1-6.4c1.4-3.3,5.1-7.7,9-7
			C620.7,118.6,621.7,122.8,619.6,126z"/>
		<path class="st7" d="M559.3,268.6c0,0-11.1,99.7-12,137.5c-0.9,39.4,37.8,162.2,37.8,162.2l19.8-8.3c0,0-23-112.2-19.8-150.8
			C588.5,367,603,268.6,603,268.6H559.3z"/>
		<path class="st8" d="M587,296c-8.9,18.4-2.9,54.9,1.9,76.4c1.8-15.2,4-31.8,6.1-47.1C594.8,301.8,593,283.6,587,296z"/>
		<path class="st7" d="M604,553.5c0.1,0,2.3,6.3,2.3,6.3l-22.8,9.6l-3.6-6.7L604,553.5z"/>
		<path class="st7" d="M582.9,268.6c0,0,8.5,94.8,14.2,130.3c6.2,38.9,30.5,168.5,30.5,168.5h22.7c0,0-13.6-126.4-16.2-165
			c-2.8-41.8-8.4-133.9-8.4-133.9H582.9z"/>
		<path class="st7" d="M650.6,561.5c0.1,0,0.8,6.4,0.8,6.4h-25l-1.8-7.3L650.6,561.5z"/>
		<path class="st8" d="M641.9,554c-0.1,0-0.2-0.1-0.2-0.2c-0.1-1.1-12.4-115.3-14.7-149.9c-2.5-37.6-7.5-120.8-7.6-121.7
			c0-0.1,0.1-0.2,0.2-0.2c0,0,0,0,0,0c0.1,0,0.2,0.1,0.2,0.2c0,0.8,5.1,84.1,7.6,121.7c2.3,34.6,14.6,148.7,14.7,149.9
			C642.1,553.9,642,554,641.9,554C641.9,554,641.9,554,641.9,554z"/>
		<path class="st10" d="M596,115.9c-0.1,1-0.6,1.8-1.3,1.8c-0.7,0-1.1-0.8-1.1-1.8c0.1-1,0.6-1.8,1.3-1.8
			C595.5,114.1,596,114.9,596,115.9z"/>
		<path class="st10" d="M584.6,115.9c-0.1,1-0.6,1.8-1.3,1.8s-1.1-0.8-1.1-1.8c0.1-1,0.6-1.8,1.3-1.8
			C584.2,114.1,584.7,114.9,584.6,115.9z"/>
		<path class="st12" d="M588.2,116.4c0,0-2.6,5.8-5.3,8.6c1.7,1.7,4.7,0.9,4.7,0.9L588.2,116.4z"/>
		<path class="st10" d="M588.5,130.1c-0.2,0-0.3-0.1-0.3-0.3c0-0.2,0.1-0.3,0.3-0.3c4.4,0,6.6-3.1,6.6-3.1c0.1-0.1,0.3-0.2,0.4-0.1
			c0.1,0.1,0.2,0.3,0.1,0.4C595.6,126.8,593.2,130.1,588.5,130.1z"/>
		<path class="st10" d="M598,112.9c-0.2,0.1-0.4,0.1-0.5,0c-2.2-1.4-4.2-0.4-4.2-0.4c-0.3,0.1-0.6,0-0.8-0.3c-0.1-0.3,0-0.6,0.3-0.8
			c0.1-0.1,2.6-1.2,5.3,0.5c0.3,0.2,0.3,0.5,0.2,0.8C598.2,112.7,598.1,112.8,598,112.9z"/>
		<path class="st10" d="M580.3,109.6c-0.1,0-0.2-0.1-0.2-0.1c-0.2-0.2-0.2-0.6,0-0.8c2.3-2.4,5-2.1,5.1-2c0.3,0,0.5,0.3,0.5,0.7
			c-0.1,0.3-0.4,0.5-0.7,0.5l0,0c-0.1,0-2.2-0.3-4,1.7C580.7,109.6,580.5,109.6,580.3,109.6z"/>
		<path class="st6" d="M642.3,176.9l-17.1-4.6c0,0-16.8,41.4-22.7,44.1c-8.1,3.7-28.5,16.4-37.2,22.5c-0.5,2-0.1,7.5,1,9
			c14.8-2.7,43.2-13.6,49.2-19.2C628.8,216.1,642.3,176.9,642.3,176.9z"/>
		<path class="st7" d="M630.3,584.9c-0.9,0-1.8-0.2-2.4-0.6c-0.4-0.4-0.6-0.9-0.5-1.6c0.1-0.5,0.3-0.7,0.6-0.8
			c1.4-0.7,5.3,1.8,5.7,2c0.1,0.1,0.1,0.2,0.1,0.3c0,0.1-0.1,0.2-0.2,0.2C632.7,584.7,631.5,584.9,630.3,584.9z M628.6,582.4
			c-0.2,0-0.3,0-0.4,0.1c-0.1,0-0.2,0.1-0.2,0.3c-0.1,0.5,0.1,0.8,0.3,1.1c0.6,0.6,2.3,0.6,4.4,0.2
			C631.4,583.3,629.6,582.4,628.6,582.4z"/>
		<path class="st7" d="M633.5,584.5c0,0-0.1,0-0.1,0c-1.2-0.7-3.6-3.4-3.2-4.8c0.1-0.3,0.3-0.7,1-0.8c0.5-0.1,0.9,0.1,1.2,0.4
			c1.4,1.2,1.5,4.8,1.5,4.9c0,0.1-0.1,0.2-0.1,0.3C633.6,584.5,633.6,584.5,633.5,584.5z M631.3,579.5c0,0-0.1,0-0.1,0
			c-0.4,0-0.4,0.2-0.4,0.3c-0.2,0.8,1.3,2.9,2.5,3.8c-0.1-1-0.4-3.1-1.2-3.9C631.8,579.6,631.5,579.5,631.3,579.5z"/>
		<path class="st7" d="M586.6,582.9c-1.2,0.3-2.4,0.4-3.1,0c-0.5-0.3-0.7-0.7-0.8-1.3c0-0.3,0.1-0.6,0.3-0.9
			c1.3-1.2,6.7,0.1,7.3,0.2c0.1,0,0.2,0.1,0.2,0.3c0,0.1-0.1,0.2-0.2,0.3C589.3,582,587.9,582.6,586.6,582.9z M583.9,580.9
			c-0.2,0.1-0.4,0.1-0.5,0.2c-0.1,0.1-0.1,0.2-0.1,0.3c0,0.4,0.2,0.7,0.5,0.8c0.9,0.5,2.9,0.1,5.5-1
			C587.4,581,585,580.7,583.9,580.9z"/>
		<path class="st7" d="M590.3,581.6c0,0-0.1,0-0.1,0c-1.6-0.3-5-2.2-5-3.6c0-0.3,0.1-0.8,0.9-1.1c0.6-0.2,1.2-0.2,1.7,0.1
			c1.8,0.9,2.7,4,2.8,4.2c0,0.1,0,0.2-0.1,0.3C590.4,581.5,590.3,581.5,590.3,581.6z M586.4,577.4c-0.1,0-0.1,0-0.2,0.1
			c-0.5,0.2-0.5,0.4-0.5,0.5c0,0.9,2.4,2.4,4.1,2.9c-0.3-0.9-1.1-2.7-2.3-3.3C587.1,577.3,586.7,577.3,586.4,577.4z"/>
		<path class="st6" d="M566.5,238l-17.2,7.9l-2,4.8l6.4,4.3c0,0,11.9-1.3,15.2-8.9L566.5,238z"/>
		<path class="st10" d="M567.3,248.3c-1.1-6.4-3.2-9.3-3.2-9.3l2.7-2c0.1,0.1,2.6,3.5,3.8,10.8L567.3,248.3z"/>
		<path class="st10" d="M570.2,240.3c0.6,1.4-0.3,3-2,3.7c-1.7,0.7-3.5,0.1-4-1.3c-0.6-1.4,0.3-3,2-3.7
			C567.8,238.4,569.6,239,570.2,240.3z"/>
		<polygon class="st6" points="537.7,252.3 540,254.6 555.5,248 549.4,245.9 		"/>
		<path class="st8" d="M604,553.5c0.1,0,2.3,6.3,2.3,6.3l-22.8,9.6l-3.6-6.7L604,553.5z"/>
		<path class="st8" d="M650.6,561.5c0.1,0,0.8,6.4,0.8,6.4h-25l-1.8-7.3L650.6,561.5z"/>
		<g>
			<path class="st7" d="M646.7,172.2c4.5,14.6-13.1,34.6-13.1,34.6l-24.5-10c0,0,3.4-10.6,10-24.8
				C626.6,155.8,642.2,157.4,646.7,172.2z"/>
			<path class="st8" d="M646.7,172.2c4.5,14.6-13.1,34.6-13.1,34.6l-24.5-10c0,0,3.4-10.6,10-24.8
				C626.6,155.8,642.2,157.4,646.7,172.2z"/>
		</g>
	</g>
</g>
<g id="Screen">
	<g>
		<rect x="393" y="25.7" class="st7" width="10.5" height="1.7"/>
		
			<rect x="525.9" y="106.2" transform="matrix(4.499679e-02 -0.999 0.999 4.499679e-02 408.806 641.8221)" class="st7" width="28.3" height="1.7"/>
		<polygon class="st7" points="536.6,33.4 342.1,33.4 324,438.3 518.5,438.3 		"/>
		<polygon class="st13" points="530.8,38.9 336.3,38.9 318.2,443.9 512.7,443.9 		"/>
		<polygon class="st14" points="525,44.5 330.5,44.5 312.4,449.4 506.9,449.4 		"/>
		<polygon class="st5" points="502.9,221.1 336.9,221.1 335.5,252.1 501.5,252.1 		"/>
		<polygon class="st7" points="428.2,198.5 337.9,198.5 337.3,212.3 427.6,212.3 		"/>
		<polygon class="st5" points="499.1,304.7 333.1,304.7 331.8,335.7 497.7,335.7 		"/>
		<polygon class="st15" points="468.7,377.5 357.1,377.5 355.4,414.7 467,414.7 		"/>
		<path class="st5" d="M461.2,420.4H349.6c-0.1,0-0.1,0-0.1-0.1c0,0-0.1-0.1-0.1-0.1l1.7-37.1c0-0.1,0.1-0.2,0.2-0.2h111.6
			c0.1,0,0.1,0,0.1,0.1c0,0,0.1,0.1,0.1,0.1l-1.7,37.1C461.4,420.3,461.3,420.4,461.2,420.4z M349.8,420H461l1.6-36.8H351.5
			L349.8,420z"/>
		<polygon class="st7" points="408.7,282.1 334.2,282.1 333.5,296 408,296 		"/>
		<path class="st5" d="M466.6,121c-0.4,9.3-3.8,17.8-9.2,24.8c-8.1,10.6-20.9,17.4-34.9,17.4c-14,0-26.2-6.9-33.4-17.4
			c-4.8-7-7.4-15.5-7-24.8c1-23.3,20.8-42.2,44.1-42.2C449.5,78.8,467.6,97.7,466.6,121z"/>
		<path class="st7" d="M470.5,87.6c-0.1,2.5-1,4.7-2.4,6.6c-2.2,2.8-5.6,4.6-9.3,4.6s-7-1.8-8.9-4.6c-1.3-1.8-2-4.1-1.8-6.6
			c0.3-6.2,5.5-11.2,11.7-11.2C466,76.4,470.8,81.4,470.5,87.6z"/>
		<path class="st10" d="M354.8,236.6c-0.1,2.7-2.4,5-5.2,5c-2.7,0-4.9-2.2-4.7-5c0.1-2.7,2.4-5,5.2-5
			C352.8,231.6,354.9,233.8,354.8,236.6z"/>
		<path class="st10" d="M377,236.6c-0.1,2.7-2.4,5-5.2,5c-2.7,0-4.9-2.2-4.7-5c0.1-2.7,2.4-5,5.2-5C375,231.6,377.1,233.8,377,236.6
			z"/>
		<path class="st10" d="M399.2,236.6c-0.1,2.7-2.4,5-5.2,5c-2.7,0-4.9-2.2-4.7-5c0.1-2.7,2.4-5,5.2-5S399.3,233.8,399.2,236.6z"/>
		<path class="st10" d="M351,320.2c-0.1,2.7-2.4,5-5.2,5c-2.7,0-4.9-2.2-4.7-5c0.1-2.7,2.4-5,5.2-5C349,315.2,351.1,317.5,351,320.2
			z"/>
		<path class="st10" d="M373.2,320.2c-0.1,2.7-2.4,5-5.2,5s-4.9-2.2-4.7-5c0.1-2.7,2.4-5,5.2-5C371.2,315.2,373.4,317.5,373.2,320.2
			z"/>
		<path class="st10" d="M395.5,320.2c-0.1,2.7-2.4,5-5.2,5s-4.9-2.2-4.7-5c0.1-2.7,2.4-5,5.2-5C393.5,315.2,395.6,317.5,395.5,320.2
			z"/>
		<path class="st10" d="M417.7,320.2c-0.1,2.7-2.4,5-5.2,5c-2.7,0-4.9-2.2-4.7-5c0.1-2.7,2.4-5,5.2-5
			C415.7,315.2,417.8,317.5,417.7,320.2z"/>
		<path class="st10" d="M439.9,320.2c-0.1,2.7-2.4,5-5.2,5c-2.7,0-4.9-2.2-4.7-5c0.1-2.7,2.4-5,5.2-5
			C437.9,315.2,440,317.5,439.9,320.2z"/>
		<g>
			
				<ellipse transform="matrix(0.715 -0.6991 0.6991 0.715 46.3795 327.5667)" class="st7" cx="425" cy="106.9" rx="17.5" ry="16.7"/>
			<path class="st7" d="M457.4,145.8c-8.1,10.6-20.9,17.4-34.9,17.4c-14,0-26.2-6.9-33.4-17.4c8-8,20.7-13.2,34.7-13.2
				C437.9,132.7,450.1,137.8,457.4,145.8z"/>
			
				<ellipse transform="matrix(0.715 -0.6991 0.6991 0.715 46.3795 327.5667)" class="st16" cx="425" cy="106.9" rx="17.5" ry="16.7"/>
			<path class="st16" d="M457.4,145.8c-8.1,10.6-20.9,17.4-34.9,17.4c-14,0-26.2-6.9-33.4-17.4c8-8,20.7-13.2,34.7-13.2
				C437.9,132.7,450.1,137.8,457.4,145.8z"/>
		</g>
	</g>
</g>
<g id="Character_1">
	<g>
		<g>
			<path class="st6" d="M214.9,259.5c-1.6,3.4-3.2,7.2-4.6,10.9c-1.5,3.7-2.9,7.4-4.2,11.2c-2.5,7.5-4.8,15.1-5.9,22.7l-0.4,2.4
				c0,0.3,0,0.7,0.1,1.2c0.2,1,0.9,2.4,1.8,3.8c1.9,2.8,4.5,5.6,7.3,8.2c2.8,2.7,5.9,5.2,9.1,7.6c3.2,2.4,6.5,4.8,9.8,7l-3.1,5.8
				c-7.8-3.4-15.1-7.5-22.2-12.7c-3.5-2.6-6.9-5.5-10-9.4c-1.5-1.9-3-4.1-3.9-7c-0.5-1.4-0.8-3.1-0.8-4.9c0-0.4,0-1,0.1-1.3l0.1-0.8
				l0.2-1.6c0.9-8.7,2.8-17.1,5.4-25.3c1.3-4.1,2.7-8.1,4.2-12c1.6-4,3.2-7.8,5.2-11.8L214.9,259.5z"/>
			<path class="st6" d="M225.6,333.7l11.6-5.9l-3,12.8c0,0-8,2.2-11.7-1.6L225.6,333.7z"/>
			<polygon class="st6" points="247.9,329.9 244.8,340.5 234.3,340.6 237.3,327.8 			"/>
			<path class="st12" d="M264.4,197.8c0,0,1,3.7,2.6,6.5c-1.4,1.3-2.6,0.8-2.6,0.8V197.8z"/>
			<ellipse class="st10" cx="264" cy="196" rx="1.2" ry="1.9"/>
			<path class="st10" d="M263.7,194.2l2.5-0.7C266.3,193.5,265,195.5,263.7,194.2z"/>
			<path class="st6" d="M232.2,209.9c1.5,7.7,3,21.7-2.4,26.8c0,0,2.1,7.8,16.4,7.8c15.7,0,7.5-7.8,7.5-7.8c-8.6-2-8.3-8.4-6.8-14.4
				L232.2,209.9z"/>
			<path class="st6" d="M228,192.5c0.8,12.8,0.8,18.2,7.3,24.8c9.7,9.9,25.3,6.1,28.3-6.7c2.8-11.5,1-30.5-11.5-35.6
				C239.8,170,227.3,179.7,228,192.5z"/>
			<path class="st10" d="M229.3,178c-6.4,2.3-15,0.6-11.6,20.4c3.6,21-1.9,27.9-1.9,27.9s24.4,5.2,49.3-0.3c0,0-7.6-13.3-5.5-23
				c2.7-12.4,0.6-16.9,0.6-16.9S238.3,174.7,229.3,178z"/>
			<path class="st6" d="M256.5,199.1c0,2.5,0.9,5.1,2,6.9c1.7,2.7,3.8,1.6,4.3-1.2c0.5-2.5,0.1-6.9-2.1-8.6
				C258.5,194.5,256.5,196.2,256.5,199.1z"/>
			<path class="st10" d="M223.7,180.2c-1.9-5.2,7-13.2,25.6-9.8c18.6,3.3,19.4,18.8,19.4,18.8l-3.8-4.5l0.2,4.7l-19.1,3.7
				L223.7,180.2z"/>
			<g>
				<path class="st7" d="M225.3,237.6L225.3,237.6c-0.3-1.6,0.8-3.1,2.4-3.3c5.8-1,19-2.9,25.6-2c4.9,0.7,6.2,3.6,6.4,5.9
					c0.2,1.7-1.3,3.2-3,3.1l-28.7-1.3C226.7,240,225.5,239,225.3,237.6z"/>
				<path class="st17" d="M225.3,237.6L225.3,237.6c-0.3-1.6,0.8-3.1,2.4-3.3c5.8-1,19-2.9,25.6-2c4.9,0.7,6.2,3.6,6.4,5.9
					c0.2,1.7-1.3,3.2-3,3.1l-28.7-1.3C226.7,240,225.5,239,225.3,237.6z"/>
			</g>
			<polygon class="st6" points="241.9,525.6 252.5,532.9 270.3,508.8 259.6,501.5 			"/>
			<polygon class="st6" points="217.1,525.1 228.3,531.5 244,506 232.8,499.6 			"/>
			<g>
				<polygon class="st11" points="270.3,508.8 261.1,521.3 250.5,513.9 259.6,501.5 				"/>
				<polygon class="st11" points="232.8,499.6 244,506 235.9,519.1 224.7,512.7 				"/>
			</g>
			<g>
				<path class="st7" d="M250.8,318.1c0,0,41.5,52.3,33.7,102.3c-6.3,40.4-42.7,95.1-42.7,95.1l-17.1-8.5c0,0,18.6-36.4,30.8-74.9
					c5.1-16.2,2.9-34-6.6-48c-21-30.7-54.7-12.4-32-66.1H250.8z"/>
				<path class="st17" d="M250.8,318.1c0,0,41.5,52.3,33.7,102.3c-6.3,40.4-42.7,95.1-42.7,95.1l-17.1-8.5c0,0,18.6-36.4,30.8-74.9
					c5.1-16.2,2.9-34-6.6-48c-21-30.7-54.7-12.4-32-66.1H250.8z"/>
			</g>
			<path class="st18" d="M271.2,351.7l-6-6c0,0.5,11.7,72.6,15,92.9c2-6.2,3.5-12.3,4.4-18.2C288.3,395.9,280.3,370.9,271.2,351.7z"
				/>
			<g>
				<path class="st7" d="M269.4,318.1c0,0,50,65.7,51.4,105.1c1.2,33-54.4,96.8-54.4,96.8l-16.1-10.4c0,0,32.5-45.3,40.7-82.4
					c-3.1-36.7-70.1-109.1-70.1-109.1H269.4z"/>
				<path class="st17" d="M269.4,318.1c0,0,50,65.7,51.4,105.1c1.2,33-54.4,96.8-54.4,96.8l-16.1-10.4c0,0,32.5-45.3,40.7-82.4
					c-3.1-36.7-70.1-109.1-70.1-109.1H269.4z"/>
			</g>
			<path class="st7" d="M207.5,239.7c-5.4,1.3-10.5,20.7-10.5,20.7l20.9,13.9c0,0,7-15.4,4.5-22.1
				C219.9,245.2,214.3,238.1,207.5,239.7z"/>
			<path class="st8" d="M211.6,252.2l-1.5,16.9l7.8,5.2c0,0,3.6-8,4.7-15.1L211.6,252.2z"/>
			<path class="st7" d="M275.5,240.1c0,0,6.2,2.2-6.2,78c-20.8,0-42.4,0-52.5,0c0.9-21.4,0.9-34.5-9.3-78.4c0,0,11-2.4,22.3-2.9
				c8.8-0.4,16.1-0.7,23.8,0C263.9,237.7,275.5,240.1,275.5,240.1z"/>
			<path class="st6" d="M280.9,252.1c1.2,3.3,2.4,6.8,3.8,10.3c1.3,3.5,2.6,6.9,3.9,10.4l4,10.4l1,2.6l0.5,1.3l0.3,0.6
				c0,0.1,0,0.1,0,0.1c-0.1,0-0.1-0.4-1.2-1c-0.5-0.3-1.3-0.6-2.2-0.6c-0.8,0-1.5,0.2-1.8,0.3c-0.7,0.4-0.8,0.5-0.7,0.5
				c0,0,0.2-0.2,0.4-0.4c0.7-0.9,1.6-2.4,2.4-3.8c0.8-1.5,1.5-3.1,2.3-4.8c1.5-3.3,2.8-6.7,4.1-10.1c1.3-3.4,2.6-6.9,3.8-10.4
				l3.8-10.5l6.3,1.6c-1.3,7.5-2.9,14.9-4.8,22.3c-0.9,3.7-2,7.4-3.3,11.1c-0.6,1.9-1.3,3.7-2.1,5.6c-0.8,1.9-1.7,3.8-3.1,6
				c-0.4,0.6-0.8,1.1-1.4,1.8c-0.6,0.6-1.4,1.4-3,2.1c-0.8,0.3-1.9,0.6-3.2,0.6c-1.3,0-2.6-0.5-3.5-1c-1.8-1.2-2.5-2.3-3-3.1
				c-0.3-0.4-0.5-0.9-0.6-1.2l-0.3-0.6l-0.6-1.3l-1.2-2.6c-1.6-3.4-3.2-6.9-4.7-10.4c-1.5-3.5-3-7-4.4-10.5
				c-1.4-3.6-2.7-7.1-3.9-10.9L280.9,252.1z"/>
			<path class="st7" d="M275.5,240.1c6.3,1.5,13.4,20.2,13.4,20.2l-18.8,16c0,0-12.2-20.3-9.7-27C263,242.2,267.3,238.1,275.5,240.1
				z"/>
			<path class="st6" d="M308.1,241l6.6-5.5l4.6,7.1l-3.4,6c0,0-5.4,4.9-10.1,2.4l0,0C304.3,247.5,305.2,243.4,308.1,241z"/>
			<polygon class="st6" points="326.7,235.5 326.2,237.3 315.7,239.1 314.7,235.5 			"/>
			<polygon class="st7" points="267.6,520.9 248.8,508.8 252.2,502.9 273.3,515.9 			"/>
			<path class="st10" d="M235.6,530.6c-1.5,0-3.5-0.9-4.7-1.6c-0.1-0.1-0.2-0.2-0.2-0.3c0-0.1,0.1-0.2,0.2-0.3
				c0.5-0.2,5-1.5,6.2-0.5c0.2,0.2,0.4,0.5,0.4,1c-0.1,0.7-0.4,1.2-0.9,1.4C236.4,530.5,236,530.6,235.6,530.6z M231.9,528.8
				c2,1,3.7,1.4,4.5,1c0.3-0.2,0.5-0.5,0.6-1c0-0.3-0.1-0.4-0.1-0.4C236.2,527.9,233.7,528.3,231.9,528.8z"/>
			<path class="st10" d="M231.1,529c-0.1,0-0.2,0-0.2-0.1c-0.1-0.1-0.1-0.2-0.1-0.3c0-0.2,1.1-3.7,2.8-4.5c0.5-0.2,0.9-0.2,1.4,0
				c0.7,0.3,0.8,0.8,0.8,1.1C235.6,526.6,232.6,528.7,231.1,529C231.2,529,231.2,529,231.1,529z M234.3,524.5c-0.2,0-0.3,0-0.5,0.1
				c-1,0.5-1.9,2.4-2.3,3.6c1.5-0.6,3.4-2.2,3.5-3.1c0-0.1,0-0.3-0.4-0.5C234.6,524.6,234.5,524.5,234.3,524.5z"/>
			<path class="st10" d="M259.2,537.7c-1.9,0-4.4-2.4-5.9-3.9c-0.1-0.1-0.1-0.2-0.1-0.4c0.1-0.1,0.2-0.2,0.3-0.2
				c0.7,0.1,6.4,0.9,7.2,2.5c0.2,0.3,0.1,0.6,0,1c-0.3,0.5-0.7,0.8-1.3,0.9C259.3,537.7,259.3,537.7,259.2,537.7z M254.4,534.1
				c2.1,2,3.9,3.1,4.9,3c0.4,0,0.6-0.2,0.8-0.6c0.1-0.1,0.1-0.3,0-0.4C259.8,535.2,256.7,534.5,254.4,534.1z"/>
			<path class="st10" d="M254.6,534.1c-0.4,0-0.8,0-1.1-0.1c-0.1,0-0.2-0.1-0.2-0.2c0-0.1,0-0.2,0.1-0.3c0.1-0.1,2.3-2.8,4.4-3
				c0.7-0.1,1.2,0.1,1.7,0.5c0.6,0.6,0.6,1.1,0.5,1.4C259.4,533.5,256.5,534.1,254.6,534.1z M254.2,533.4c1.8,0.1,4.8-0.5,5.2-1.3
				c0-0.1,0.1-0.3-0.3-0.6c-0.4-0.3-0.8-0.4-1.2-0.4C256.4,531.2,254.9,532.7,254.2,533.4z"/>
			<path class="st7" d="M231.6,527.3l-14-4c-0.5-0.1-1,0.1-1.2,0.6l-4.7,10.6c-0.5,1.1,0.2,2.5,1.4,2.8c4.9,1.3,7.3,1.7,13.5,3.4
				c3.8,1.1,9.2,3,14.4,4.5c5.1,1.4,7-3.6,4.9-4.7c-9.2-4.9-9.9-8.2-12.4-11.9C233,528,232.3,527.5,231.6,527.3z"/>
			<path class="st7" d="M253.7,532l-11.9-8.3c-0.4-0.3-1-0.2-1.4,0.1l-7.9,8.5c-0.8,0.9-0.6,2.4,0.4,3.1c4.2,2.8,6.4,4,11.6,7.6
				c3.2,2.2,9.7,7.2,14.1,10.3c4.4,3,7.8-1.1,6.2-2.8c-7.1-7.6-8.6-12.3-9.8-16.6C254.8,533.1,254.3,532.4,253.7,532z"/>
			<polygon class="st7" points="244,516.6 222.5,505.9 224.7,500.1 247.7,511.4 			"/>
			<g>
				<path class="st7" d="M216.1,315l-1.8,4.7c-0.2,0.4,0.2,0.7,0.9,0.7h54.5c0.5,0,0.9-0.2,0.9-0.5l0.5-4.7c0-0.3-0.4-0.6-0.9-0.6
					h-53.2C216.5,314.6,216.2,314.8,216.1,315z"/>
				<path class="st19" d="M216.1,315l-1.8,4.7c-0.2,0.4,0.2,0.7,0.9,0.7h54.5c0.5,0,0.9-0.2,0.9-0.5l0.5-4.7c0-0.3-0.4-0.6-0.9-0.6
					h-53.2C216.5,314.6,216.2,314.8,216.1,315z"/>
			</g>
			<g>
				<path class="st7" d="M224.6,321h-1.4c-0.3,0-0.5-0.1-0.5-0.3l0.7-6.1c0-0.2,0.3-0.3,0.6-0.3h1.4c0.3,0,0.5,0.1,0.5,0.3l-0.7,6.1
					C225.2,320.8,224.9,321,224.6,321z"/>
				<path class="st7" d="M258.3,321h-1.4c-0.3,0-0.5-0.1-0.5-0.3l0.7-6.1c0-0.2,0.3-0.3,0.6-0.3h1.4c0.3,0,0.5,0.1,0.5,0.3l-0.7,6.1
					C258.8,320.8,258.5,321,258.3,321z"/>
			</g>
		</g>
		<g>
			<g>
				<ellipse class="st3" cx="223.4" cy="596.9" rx="44.2" ry="3.2"/>
				<path class="st1" d="M250.3,592.4c-7.8-2.3-16.4-5.2-21.7-8.3c-0.1-0.1-0.3-0.1-0.5-0.2v-35.3h15.7c2.6,0,4.7-2.1,4.7-4.7
					c0-2.6-2.1-4.7-4.7-4.7h-15.7V377.9h-9.4v161.2H203c-2.6,0-4.7,2.1-4.7,4.7c0,2.6,2.1,4.7,4.7,4.7h15.7v35.3
					c-0.2,0.1-0.3,0.1-0.5,0.2c-5.3,3.1-13.9,6-21.7,8.3c-2.6,0.7-2,4.5,0.6,4.5h26.2h26.2C252.3,596.9,252.8,593.1,250.3,592.4z"/>
			</g>
			<g>
				<path class="st7" d="M256.1,396h-65.3c-2.8,0-5.2-2.3-5.2-5.2v-24.1c0-2.8,2.3-5.2,5.2-5.2h65.3c2.8,0,5.2,2.3,5.2,5.2v24.1
					C261.2,393.7,258.9,396,256.1,396z"/>
				<g>
					<path class="st7" d="M193.6,396v3c0,2.5,2.7,4.5,6,4.5h47.7c3.3,0,6-2,6-4.5v-3H193.6z"/>
					<path class="st20" d="M193.6,396v3c0,2.5,2.7,4.5,6,4.5h47.7c3.3,0,6-2,6-4.5v-3H193.6z"/>
				</g>
			</g>
		</g>
	</g>
</g>
</svg>
